<?xml version="1.0" encoding="UTF-8" standalone="no"?>
<!DOCTYPE svg PUBLIC "-//W3C//DTD SVG 1.1//EN"
 "http://www.w3.org/Graphics/SVG/1.1/DTD/svg11.dtd">
<!-- Generated by graphviz version 13.1.2 (20250809.0930)
 -->
<!-- Pages: 1 -->
<svg width="2447pt" height="764pt"
 viewBox="0.00 0.00 2447.00 764.00" xmlns="http://www.w3.org/2000/svg" xmlns:xlink="http://www.w3.org/1999/xlink">
<g id="graph0" class="graph" transform="scale(1 1) rotate(0) translate(4 760)">
<polygon fill="white" stroke="none" points="-4,4 -4,-760 2442.82,-760 2442.82,4 -4,4"/>
<!-- task_data_management_template.py::task_clean_stats4schools_smoking_data -->
<g id="node1" class="node">
<title>task_data_management_template.py::task_clean_stats4schools_smoking_data</title>
<polygon fill="none" stroke="black" points="1515.7,-666 1285.66,-684 825.59,-684 595.55,-666 825.59,-648 1285.66,-648 1515.7,-666"/>
<text xml:space="preserve" text-anchor="middle" x="1055.62" y="-661.33" font-family="Times,serif" font-size="14.00">task_data_management_template.py::task_clean_stats4schools_smoking_data</text>
</g>
<!-- econ&#45;project&#45;templates/bld/data/stats4schools_smoking.pickle -->
<g id="node2" class="node">
<title>econ&#45;project&#45;templates/bld/data/stats4schools_smoking.pickle</title>
<polygon fill="none" stroke="black" points="1284.12,-612 827.12,-612 827.12,-576 1284.12,-576 1284.12,-612"/>
<text xml:space="preserve" text-anchor="middle" x="1055.62" y="-589.33" font-family="Times,serif" font-size="14.00">econ&#45;project&#45;templates/bld/data/stats4schools_smoking.pickle</text>
</g>
<!-- task_data_management_template.py::task_clean_stats4schools_smoking_data&#45;&gt;econ&#45;project&#45;templates/bld/data/stats4schools_smoking.pickle -->
<g id="edge1" class="edge">
<title>task_data_management_template.py::task_clean_stats4schools_smoking_data&#45;&gt;econ&#45;project&#45;templates/bld/data/stats4schools_smoking.pickle</title>
<path fill="none" stroke="black" d="M1055.62,-647.7C1055.62,-640.41 1055.62,-631.73 1055.62,-623.54"/>
<polygon fill="black" stroke="black" points="1059.13,-623.62 1055.63,-613.62 1052.13,-623.62 1059.13,-623.62"/>
</g>
<!-- task_final_template.py::task_plot_results_by_age[marital_status] -->
<g id="node5" class="node">
<title>task_final_template.py::task_plot_results_by_age[marital_status]</title>
<polygon fill="none" stroke="black" points="944.37,-234 752,-252 367.25,-252 174.88,-234 367.25,-216 752,-216 944.37,-234"/>
<text xml:space="preserve" text-anchor="middle" x="559.62" y="-229.32" font-family="Times,serif" font-size="14.00">task_final_template.py::task_plot_results_by_age[marital_status]</text>
</g>
<!-- econ&#45;project&#45;templates/bld/data/stats4schools_smoking.pickle&#45;&gt;task_final_template.py::task_plot_results_by_age[marital_status] -->
<g id="edge4" class="edge">
<title>econ&#45;project&#45;templates/bld/data/stats4schools_smoking.pickle&#45;&gt;task_final_template.py::task_plot_results_by_age[marital_status]</title>
<path fill="none" stroke="black" d="M1033.84,-575.83C1005.52,-551.39 959.62,-503.67 959.62,-451 959.62,-451 959.62,-451 959.62,-377 959.62,-350.52 1031,-369.51 829.62,-288 793,-273.17 751.85,-262.39 712.92,-254.6"/>
<polygon fill="black" stroke="black" points="713.98,-251.24 703.5,-252.76 712.64,-258.11 713.98,-251.24"/>
</g>
<!-- task_final_template.py::task_plot_results_by_age[highest_qualification] -->
<g id="node6" class="node">
<title>task_final_template.py::task_plot_results_by_age[highest_qualification]</title>
<polygon fill="none" stroke="black" points="2438.82,-234 2228.22,-252 1807.03,-252 1596.43,-234 1807.03,-216 2228.22,-216 2438.82,-234"/>
<text xml:space="preserve" text-anchor="middle" x="2017.62" y="-229.32" font-family="Times,serif" font-size="14.00">task_final_template.py::task_plot_results_by_age[highest_qualification]</text>
</g>
<!-- econ&#45;project&#45;templates/bld/data/stats4schools_smoking.pickle&#45;&gt;task_final_template.py::task_plot_results_by_age[highest_qualification] -->
<g id="edge5" class="edge">
<title>econ&#45;project&#45;templates/bld/data/stats4schools_smoking.pickle&#45;&gt;task_final_template.py::task_plot_results_by_age[highest_qualification]</title>
<path fill="none" stroke="black" d="M1284.26,-590.46C1653.12,-583.28 2338.62,-555.84 2338.62,-451 2338.62,-451 2338.62,-451 2338.62,-377 2338.62,-336.55 2348.74,-316.07 2319.62,-288 2304.07,-273 2268.01,-262.19 2226.01,-254.41"/>
<polygon fill="black" stroke="black" points="2226.87,-251.01 2216.41,-252.71 2225.65,-257.9 2226.87,-251.01"/>
</g>
<!-- task_analysis_template.py::task_fit_model -->
<g id="node7" class="node">
<title>task_analysis_template.py::task_fit_model</title>
<polygon fill="none" stroke="black" points="893.76,-522 766.69,-540 512.56,-540 385.49,-522 512.56,-504 766.69,-504 893.76,-522"/>
<text xml:space="preserve" text-anchor="middle" x="639.62" y="-517.33" font-family="Times,serif" font-size="14.00">task_analysis_template.py::task_fit_model</text>
</g>
<!-- econ&#45;project&#45;templates/bld/data/stats4schools_smoking.pickle&#45;&gt;task_analysis_template.py::task_fit_model -->
<g id="edge6" class="edge">
<title>econ&#45;project&#45;templates/bld/data/stats4schools_smoking.pickle&#45;&gt;task_analysis_template.py::task_fit_model</title>
<path fill="none" stroke="black" d="M951.72,-575.52C891.68,-565.41 816.03,-552.68 754.25,-542.29"/>
<polygon fill="black" stroke="black" points="755.22,-538.9 744.78,-540.69 754.06,-545.8 755.22,-538.9"/>
</g>
<!-- task_analysis_template.py::task_predict[marital_status] -->
<g id="node8" class="node">
<title>task_analysis_template.py::task_predict[marital_status]</title>
<polygon fill="none" stroke="black" points="931.95,-378 764.79,-396 430.46,-396 263.3,-378 430.46,-360 764.79,-360 931.95,-378"/>
<text xml:space="preserve" text-anchor="middle" x="597.62" y="-373.32" font-family="Times,serif" font-size="14.00">task_analysis_template.py::task_predict[marital_status]</text>
</g>
<!-- econ&#45;project&#45;templates/bld/data/stats4schools_smoking.pickle&#45;&gt;task_analysis_template.py::task_predict[marital_status] -->
<g id="edge7" class="edge">
<title>econ&#45;project&#45;templates/bld/data/stats4schools_smoking.pickle&#45;&gt;task_analysis_template.py::task_predict[marital_status]</title>
<path fill="none" stroke="black" d="M1013.31,-575.58C992.29,-566.19 966.91,-553.73 945.62,-540 924.68,-526.49 923.77,-517.19 902.62,-504 835.77,-462.31 813.6,-461.71 740.62,-432 713.59,-420.99 683.32,-409.64 657.61,-400.27"/>
<polygon fill="black" stroke="black" points="658.91,-397.02 648.32,-396.91 656.53,-403.61 658.91,-397.02"/>
</g>
<!-- task_analysis_template.py::task_predict[highest_qualification] -->
<g id="node9" class="node">
<title>task_analysis_template.py::task_predict[highest_qualification]</title>
<polygon fill="none" stroke="black" points="2204.4,-378 2019.01,-396 1648.24,-396 1462.85,-378 1648.24,-360 2019.01,-360 2204.4,-378"/>
<text xml:space="preserve" text-anchor="middle" x="1833.62" y="-373.32" font-family="Times,serif" font-size="14.00">task_analysis_template.py::task_predict[highest_qualification]</text>
</g>
<!-- econ&#45;project&#45;templates/bld/data/stats4schools_smoking.pickle&#45;&gt;task_analysis_template.py::task_predict[highest_qualification] -->
<g id="edge8" class="edge">
<title>econ&#45;project&#45;templates/bld/data/stats4schools_smoking.pickle&#45;&gt;task_analysis_template.py::task_predict[highest_qualification]</title>
<path fill="none" stroke="black" d="M1284.23,-583.18C1479.4,-569.95 1740.04,-539.15 1814.62,-468 1830.62,-452.74 1834.81,-427.56 1835.31,-407.88"/>
<polygon fill="black" stroke="black" points="1838.82,-407.95 1835.24,-397.98 1831.82,-408 1838.82,-407.95"/>
</g>
<!-- template_project/data/stats4schools_smoking_template.csv -->
<g id="node3" class="node">
<title>template_project/data/stats4schools_smoking_template.csv</title>
<polygon fill="none" stroke="black" points="1023.12,-756 584.12,-756 584.12,-720 1023.12,-720 1023.12,-756"/>
<text xml:space="preserve" text-anchor="middle" x="803.62" y="-733.33" font-family="Times,serif" font-size="14.00">template_project/data/stats4schools_smoking_template.csv</text>
</g>
<!-- template_project/data/stats4schools_smoking_template.csv&#45;&gt;task_data_management_template.py::task_clean_stats4schools_smoking_data -->
<g id="edge2" class="edge">
<title>template_project/data/stats4schools_smoking_template.csv&#45;&gt;task_data_management_template.py::task_clean_stats4schools_smoking_data</title>
<path fill="none" stroke="black" d="M866.57,-719.52C901.73,-709.75 945.72,-697.53 982.41,-687.34"/>
<polygon fill="black" stroke="black" points="982.89,-690.84 991.59,-684.79 981.02,-684.09 982.89,-690.84"/>
</g>
<!-- template_project/data_management/stats4schools_smoking_template.py -->
<g id="node4" class="node">
<title>template_project/data_management/stats4schools_smoking_template.py</title>
<polygon fill="none" stroke="black" points="1574,-756 1041.25,-756 1041.25,-720 1574,-720 1574,-756"/>
<text xml:space="preserve" text-anchor="middle" x="1307.62" y="-733.33" font-family="Times,serif" font-size="14.00">template_project/data_management/stats4schools_smoking_template.py</text>
</g>
<!-- template_project/data_management/stats4schools_smoking_template.py&#45;&gt;task_data_management_template.py::task_clean_stats4schools_smoking_data -->
<g id="edge3" class="edge">
<title>template_project/data_management/stats4schools_smoking_template.py&#45;&gt;task_data_management_template.py::task_clean_stats4schools_smoking_data</title>
<path fill="none" stroke="black" d="M1244.68,-719.52C1209.52,-709.75 1165.53,-697.53 1128.84,-687.34"/>
<polygon fill="black" stroke="black" points="1130.23,-684.09 1119.66,-684.79 1128.36,-690.84 1130.23,-684.09"/>
</g>
<!-- documents/public/smoking_by_marital_status.png -->
<g id="node16" class="node">
<title>documents/public/smoking_by_marital_status.png</title>
<polygon fill="none" stroke="black" points="826.38,-180 454.88,-180 454.88,-144 826.38,-144 826.38,-180"/>
<text xml:space="preserve" text-anchor="middle" x="640.62" y="-157.32" font-family="Times,serif" font-size="14.00">documents/public/smoking_by_marital_status.png</text>
</g>
<!-- task_final_template.py::task_plot_results_by_age[marital_status]&#45;&gt;documents/public/smoking_by_marital_status.png -->
<g id="edge18" class="edge">
<title>task_final_template.py::task_plot_results_by_age[marital_status]&#45;&gt;documents/public/smoking_by_marital_status.png</title>
<path fill="none" stroke="black" d="M579.65,-215.7C589.38,-207.28 601.26,-197.02 611.94,-187.79"/>
<polygon fill="black" stroke="black" points="614.13,-190.52 619.41,-181.34 609.55,-185.23 614.13,-190.52"/>
</g>
<!-- documents/public/smoking_by_highest_qualification.png -->
<g id="node19" class="node">
<title>documents/public/smoking_by_highest_qualification.png</title>
<polygon fill="none" stroke="black" points="2225.88,-180 1809.38,-180 1809.38,-144 2225.88,-144 2225.88,-180"/>
<text xml:space="preserve" text-anchor="middle" x="2017.62" y="-157.32" font-family="Times,serif" font-size="14.00">documents/public/smoking_by_highest_qualification.png</text>
</g>
<!-- task_final_template.py::task_plot_results_by_age[highest_qualification]&#45;&gt;documents/public/smoking_by_highest_qualification.png -->
<g id="edge23" class="edge">
<title>task_final_template.py::task_plot_results_by_age[highest_qualification]&#45;&gt;documents/public/smoking_by_highest_qualification.png</title>
<path fill="none" stroke="black" d="M2017.62,-215.7C2017.62,-208.41 2017.62,-199.73 2017.62,-191.54"/>
<polygon fill="black" stroke="black" points="2021.13,-191.62 2017.63,-181.62 2014.13,-191.62 2021.13,-191.62"/>
</g>
<!-- econ&#45;project&#45;templates/bld/estimation_results/baseline.pickle -->
<g id="node12" class="node">
<title>econ&#45;project&#45;templates/bld/estimation_results/baseline.pickle</title>
<polygon fill="none" stroke="black" points="1805.25,-468 1352,-468 1352,-432 1805.25,-432 1805.25,-468"/>
<text xml:space="preserve" text-anchor="middle" x="1578.62" y="-445.32" font-family="Times,serif" font-size="14.00">econ&#45;project&#45;templates/bld/estimation_results/baseline.pickle</text>
</g>
<!-- task_analysis_template.py::task_fit_model&#45;&gt;econ&#45;project&#45;templates/bld/estimation_results/baseline.pickle -->
<g id="edge26" class="edge">
<title>task_analysis_template.py::task_fit_model&#45;&gt;econ&#45;project&#45;templates/bld/estimation_results/baseline.pickle</title>
<path fill="none" stroke="black" d="M803.72,-508.77C952.19,-497.7 1172.62,-481.27 1340.47,-468.75"/>
<polygon fill="black" stroke="black" points="1340.48,-472.26 1350.19,-468.03 1339.96,-465.28 1340.48,-472.26"/>
</g>
<!-- econ&#45;project&#45;templates/bld/predictions/marital_status.pickle -->
<g id="node18" class="node">
<title>econ&#45;project&#45;templates/bld/predictions/marital_status.pickle</title>
<polygon fill="none" stroke="black" points="820.12,-324 375.12,-324 375.12,-288 820.12,-288 820.12,-324"/>
<text xml:space="preserve" text-anchor="middle" x="597.62" y="-301.32" font-family="Times,serif" font-size="14.00">econ&#45;project&#45;templates/bld/predictions/marital_status.pickle</text>
</g>
<!-- task_analysis_template.py::task_predict[marital_status]&#45;&gt;econ&#45;project&#45;templates/bld/predictions/marital_status.pickle -->
<g id="edge29" class="edge">
<title>task_analysis_template.py::task_predict[marital_status]&#45;&gt;econ&#45;project&#45;templates/bld/predictions/marital_status.pickle</title>
<path fill="none" stroke="black" d="M597.62,-359.7C597.62,-352.41 597.62,-343.73 597.62,-335.54"/>
<polygon fill="black" stroke="black" points="601.13,-335.62 597.63,-325.62 594.13,-335.62 601.13,-335.62"/>
</g>
<!-- econ&#45;project&#45;templates/bld/predictions/highest_qualification.pickle -->
<g id="node21" class="node">
<title>econ&#45;project&#45;templates/bld/predictions/highest_qualification.pickle</title>
<polygon fill="none" stroke="black" points="2310.62,-324 1820.62,-324 1820.62,-288 2310.62,-288 2310.62,-324"/>
<text xml:space="preserve" text-anchor="middle" x="2065.62" y="-301.32" font-family="Times,serif" font-size="14.00">econ&#45;project&#45;templates/bld/predictions/highest_qualification.pickle</text>
</g>
<!-- task_analysis_template.py::task_predict[highest_qualification]&#45;&gt;econ&#45;project&#45;templates/bld/predictions/highest_qualification.pickle -->
<g id="edge33" class="edge">
<title>task_analysis_template.py::task_predict[highest_qualification]&#45;&gt;econ&#45;project&#45;templates/bld/predictions/highest_qualification.pickle</title>
<path fill="none" stroke="black" d="M1891.57,-359.52C1923.66,-349.83 1963.74,-337.74 1997.35,-327.6"/>
<polygon fill="black" stroke="black" points="1998.01,-331.06 2006.57,-324.82 1995.98,-324.36 1998.01,-331.06"/>
</g>
<!-- task_final_template.py::task_create_results_table -->
<g id="node10" class="node">
<title>task_final_template.py::task_create_results_table</title>
<polygon fill="none" stroke="black" points="1554.68,-234 1406.65,-252 1110.6,-252 962.57,-234 1110.6,-216 1406.65,-216 1554.68,-234"/>
<text xml:space="preserve" text-anchor="middle" x="1258.62" y="-229.32" font-family="Times,serif" font-size="14.00">task_final_template.py::task_create_results_table</text>
</g>
<!-- documents/tables/estimation_results.md -->
<g id="node11" class="node">
<title>documents/tables/estimation_results.md</title>
<polygon fill="none" stroke="black" points="1150.38,-180 844.88,-180 844.88,-144 1150.38,-144 1150.38,-180"/>
<text xml:space="preserve" text-anchor="middle" x="997.62" y="-157.32" font-family="Times,serif" font-size="14.00">documents/tables/estimation_results.md</text>
</g>
<!-- task_final_template.py::task_create_results_table&#45;&gt;documents/tables/estimation_results.md -->
<g id="edge9" class="edge">
<title>task_final_template.py::task_create_results_table&#45;&gt;documents/tables/estimation_results.md</title>
<path fill="none" stroke="black" d="M1193.44,-215.52C1157.02,-205.75 1111.46,-193.53 1073.45,-183.34"/>
<polygon fill="black" stroke="black" points="1074.46,-179.98 1063.9,-180.77 1072.65,-186.74 1074.46,-179.98"/>
</g>
<!-- task_documents.py::task_compile_presentation -->
<g id="node14" class="node">
<title>task_documents.py::task_compile_presentation</title>
<polygon fill="none" stroke="black" points="925.14,-90 782.88,-108 498.37,-108 356.11,-90 498.37,-72 782.88,-72 925.14,-90"/>
<text xml:space="preserve" text-anchor="middle" x="640.62" y="-85.33" font-family="Times,serif" font-size="14.00">task_documents.py::task_compile_presentation</text>
</g>
<!-- documents/tables/estimation_results.md&#45;&gt;task_documents.py::task_compile_presentation -->
<g id="edge16" class="edge">
<title>documents/tables/estimation_results.md&#45;&gt;task_documents.py::task_compile_presentation</title>
<path fill="none" stroke="black" d="M908.46,-143.52C857.46,-133.52 793.35,-120.95 740.65,-110.61"/>
<polygon fill="black" stroke="black" points="741.55,-107.22 731.07,-108.73 740.21,-114.09 741.55,-107.22"/>
</g>
<!-- task_documents.py::task_compile_paper -->
<g id="node15" class="node">
<title>task_documents.py::task_compile_paper</title>
<polygon fill="none" stroke="black" points="1495.04,-90 1372.83,-108 1128.42,-108 1006.21,-90 1128.42,-72 1372.83,-72 1495.04,-90"/>
<text xml:space="preserve" text-anchor="middle" x="1250.62" y="-85.33" font-family="Times,serif" font-size="14.00">task_documents.py::task_compile_paper</text>
</g>
<!-- documents/tables/estimation_results.md&#45;&gt;task_documents.py::task_compile_paper -->
<g id="edge17" class="edge">
<title>documents/tables/estimation_results.md&#45;&gt;task_documents.py::task_compile_paper</title>
<path fill="none" stroke="black" d="M1060.81,-143.52C1096.12,-133.75 1140.28,-121.53 1177.12,-111.34"/>
<polygon fill="black" stroke="black" points="1177.64,-114.83 1186.34,-108.79 1175.77,-108.08 1177.64,-114.83"/>
</g>
<!-- econ&#45;project&#45;templates/bld/estimation_results/baseline.pickle&#45;&gt;task_analysis_template.py::task_predict[marital_status] -->
<g id="edge11" class="edge">
<title>econ&#45;project&#45;templates/bld/estimation_results/baseline.pickle&#45;&gt;task_analysis_template.py::task_predict[marital_status]</title>
<path fill="none" stroke="black" d="M1351.6,-432.64C1348.59,-432.43 1345.6,-432.21 1342.62,-432 1161.87,-419.06 956.45,-404.45 807.15,-393.86"/>
<polygon fill="black" stroke="black" points="807.79,-390.39 797.56,-393.18 807.29,-397.37 807.79,-390.39"/>
</g>
<!-- econ&#45;project&#45;templates/bld/estimation_results/baseline.pickle&#45;&gt;task_analysis_template.py::task_predict[highest_qualification] -->
<g id="edge12" class="edge">
<title>econ&#45;project&#45;templates/bld/estimation_results/baseline.pickle&#45;&gt;task_analysis_template.py::task_predict[highest_qualification]</title>
<path fill="none" stroke="black" d="M1642.31,-431.52C1677.89,-421.75 1722.41,-409.53 1759.54,-399.34"/>
<polygon fill="black" stroke="black" points="1760.13,-402.8 1768.85,-396.78 1758.28,-396.05 1760.13,-402.8"/>
</g>
<!-- econ&#45;project&#45;templates/bld/estimation_results/baseline.pickle&#45;&gt;task_final_template.py::task_create_results_table -->
<g id="edge10" class="edge">
<title>econ&#45;project&#45;templates/bld/estimation_results/baseline.pickle&#45;&gt;task_final_template.py::task_create_results_table</title>
<path fill="none" stroke="black" d="M1425.86,-431.5C1294.75,-412.97 1120.36,-378.71 1077.62,-324 1051.62,-290.71 1090.31,-269.03 1138.5,-255.42"/>
<polygon fill="black" stroke="black" points="1139.35,-258.81 1148.11,-252.85 1137.55,-252.05 1139.35,-258.81"/>
</g>
<!-- template_project/final/plot_template.py -->
<g id="node13" class="node">
<title>template_project/final/plot_template.py</title>
<polygon fill="none" stroke="black" points="1382.88,-324 1086.38,-324 1086.38,-288 1382.88,-288 1382.88,-324"/>
<text xml:space="preserve" text-anchor="middle" x="1234.62" y="-301.32" font-family="Times,serif" font-size="14.00">template_project/final/plot_template.py</text>
</g>
<!-- template_project/final/plot_template.py&#45;&gt;task_final_template.py::task_plot_results_by_age[marital_status] -->
<g id="edge14" class="edge">
<title>template_project/final/plot_template.py&#45;&gt;task_final_template.py::task_plot_results_by_age[marital_status]</title>
<path fill="none" stroke="black" d="M1086.08,-289.59C984.01,-279.01 847.93,-264.9 739.69,-253.67"/>
<polygon fill="black" stroke="black" points="740.12,-250.2 729.81,-252.65 739.4,-257.16 740.12,-250.2"/>
</g>
<!-- template_project/final/plot_template.py&#45;&gt;task_final_template.py::task_plot_results_by_age[highest_qualification] -->
<g id="edge15" class="edge">
<title>template_project/final/plot_template.py&#45;&gt;task_final_template.py::task_plot_results_by_age[highest_qualification]</title>
<path fill="none" stroke="black" d="M1383.37,-288.81C1386.14,-288.53 1388.9,-288.26 1391.62,-288 1523.62,-275.27 1671.43,-262.68 1790.27,-252.96"/>
<polygon fill="black" stroke="black" points="1790.48,-256.46 1800.17,-252.15 1789.91,-249.48 1790.48,-256.46"/>
</g>
<!-- template_project/final/plot_template.py&#45;&gt;task_final_template.py::task_create_results_table -->
<g id="edge13" class="edge">
<title>template_project/final/plot_template.py&#45;&gt;task_final_template.py::task_create_results_table</title>
<path fill="none" stroke="black" d="M1240.56,-287.7C1243.12,-280.24 1246.17,-271.32 1249.04,-262.97"/>
<polygon fill="black" stroke="black" points="1252.34,-264.13 1252.27,-253.54 1245.72,-261.86 1252.34,-264.13"/>
</g>
<!-- econ&#45;project&#45;templates/presentation.pdf -->
<g id="node27" class="node">
<title>econ&#45;project&#45;templates/presentation.pdf</title>
<polygon fill="none" stroke="black" points="791.88,-36 489.38,-36 489.38,0 791.88,0 791.88,-36"/>
<text xml:space="preserve" text-anchor="middle" x="640.62" y="-13.32" font-family="Times,serif" font-size="14.00">econ&#45;project&#45;templates/presentation.pdf</text>
</g>
<!-- task_documents.py::task_compile_presentation&#45;&gt;econ&#45;project&#45;templates/presentation.pdf -->
<g id="edge35" class="edge">
<title>task_documents.py::task_compile_presentation&#45;&gt;econ&#45;project&#45;templates/presentation.pdf</title>
<path fill="none" stroke="black" d="M640.62,-71.7C640.62,-64.41 640.62,-55.73 640.62,-47.54"/>
<polygon fill="black" stroke="black" points="644.13,-47.62 640.63,-37.62 637.13,-47.62 644.13,-47.62"/>
</g>
<!-- econ&#45;project&#45;templates/paper.pdf -->
<g id="node29" class="node">
<title>econ&#45;project&#45;templates/paper.pdf</title>
<polygon fill="none" stroke="black" points="1376.38,-36 1124.88,-36 1124.88,0 1376.38,0 1376.38,-36"/>
<text xml:space="preserve" text-anchor="middle" x="1250.62" y="-13.32" font-family="Times,serif" font-size="14.00">econ&#45;project&#45;templates/paper.pdf</text>
</g>
<!-- task_documents.py::task_compile_paper&#45;&gt;econ&#45;project&#45;templates/paper.pdf -->
<g id="edge37" class="edge">
<title>task_documents.py::task_compile_paper&#45;&gt;econ&#45;project&#45;templates/paper.pdf</title>
<path fill="none" stroke="black" d="M1250.62,-71.7C1250.62,-64.41 1250.62,-55.73 1250.62,-47.54"/>
<polygon fill="black" stroke="black" points="1254.13,-47.62 1250.63,-37.62 1247.13,-47.62 1254.13,-47.62"/>
</g>
<!-- documents/public/smoking_by_marital_status.png&#45;&gt;task_documents.py::task_compile_presentation -->
<g id="edge21" class="edge">
<title>documents/public/smoking_by_marital_status.png&#45;&gt;task_documents.py::task_compile_presentation</title>
<path fill="none" stroke="black" d="M640.62,-143.7C640.62,-136.41 640.62,-127.73 640.62,-119.54"/>
<polygon fill="black" stroke="black" points="644.13,-119.62 640.63,-109.62 637.13,-119.62 644.13,-119.62"/>
</g>
<!-- documents/public/smoking_by_marital_status.png&#45;&gt;task_documents.py::task_compile_paper -->
<g id="edge22" class="edge">
<title>documents/public/smoking_by_marital_status.png&#45;&gt;task_documents.py::task_compile_paper</title>
<path fill="none" stroke="black" d="M792.98,-143.52C888.1,-132.6 1009.9,-118.62 1103.93,-107.83"/>
<polygon fill="black" stroke="black" points="1104.22,-111.32 1113.76,-106.71 1103.42,-104.37 1104.22,-111.32"/>
</g>
<!-- task_plot_results_by_age[marital_status]::group -->
<g id="node17" class="node">
<title>task_plot_results_by_age[marital_status]::group</title>
<polygon fill="none" stroke="black" points="357.25,-324 0,-324 0,-288 357.25,-288 357.25,-324"/>
<text xml:space="preserve" text-anchor="middle" x="178.62" y="-301.32" font-family="Times,serif" font-size="14.00">task_plot_results_by_age[marital_status]::group</text>
</g>
<!-- task_plot_results_by_age[marital_status]::group&#45;&gt;task_final_template.py::task_plot_results_by_age[marital_status] -->
<g id="edge19" class="edge">
<title>task_plot_results_by_age[marital_status]::group&#45;&gt;task_final_template.py::task_plot_results_by_age[marital_status]</title>
<path fill="none" stroke="black" d="M273.78,-287.52C328.44,-277.48 397.2,-264.84 453.58,-254.48"/>
<polygon fill="black" stroke="black" points="454,-257.97 463.2,-252.72 452.73,-251.08 454,-257.97"/>
</g>
<!-- econ&#45;project&#45;templates/bld/predictions/marital_status.pickle&#45;&gt;task_final_template.py::task_plot_results_by_age[marital_status] -->
<g id="edge20" class="edge">
<title>econ&#45;project&#45;templates/bld/predictions/marital_status.pickle&#45;&gt;task_final_template.py::task_plot_results_by_age[marital_status]</title>
<path fill="none" stroke="black" d="M588.23,-287.7C584.04,-279.98 579.01,-270.71 574.34,-262.11"/>
<polygon fill="black" stroke="black" points="577.48,-260.55 569.63,-253.43 571.33,-263.89 577.48,-260.55"/>
</g>
<!-- task_plot_results_by_age[highest_qualification]::group -->
<g id="node20" class="node">
<title>task_plot_results_by_age[highest_qualification]::group</title>
<polygon fill="none" stroke="black" points="1802.75,-324 1400.5,-324 1400.5,-288 1802.75,-288 1802.75,-324"/>
<text xml:space="preserve" text-anchor="middle" x="1601.62" y="-301.32" font-family="Times,serif" font-size="14.00">task_plot_results_by_age[highest_qualification]::group</text>
</g>
<!-- task_plot_results_by_age[highest_qualification]::group&#45;&gt;task_final_template.py::task_plot_results_by_age[highest_qualification] -->
<g id="edge24" class="edge">
<title>task_plot_results_by_age[highest_qualification]::group&#45;&gt;task_final_template.py::task_plot_results_by_age[highest_qualification]</title>
<path fill="none" stroke="black" d="M1705.53,-287.52C1765.57,-277.41 1841.22,-264.68 1903,-254.29"/>
<polygon fill="black" stroke="black" points="1903.19,-257.8 1912.47,-252.69 1902.03,-250.9 1903.19,-257.8"/>
</g>
<!-- econ&#45;project&#45;templates/bld/predictions/highest_qualification.pickle&#45;&gt;task_final_template.py::task_plot_results_by_age[highest_qualification] -->
<g id="edge25" class="edge">
<title>econ&#45;project&#45;templates/bld/predictions/highest_qualification.pickle&#45;&gt;task_final_template.py::task_plot_results_by_age[highest_qualification]</title>
<path fill="none" stroke="black" d="M2053.76,-287.7C2048.35,-279.81 2041.83,-270.3 2035.83,-261.55"/>
<polygon fill="black" stroke="black" points="2038.75,-259.62 2030.21,-253.35 2032.98,-263.58 2038.75,-259.62"/>
</g>
<!-- task_fit_model::formula -->
<g id="node22" class="node">
<title>task_fit_model::formula</title>
<polygon fill="none" stroke="black" points="451.88,-612 269.38,-612 269.38,-576 451.88,-576 451.88,-612"/>
<text xml:space="preserve" text-anchor="middle" x="360.62" y="-589.33" font-family="Times,serif" font-size="14.00">task_fit_model::formula</text>
</g>
<!-- task_fit_model::formula&#45;&gt;task_analysis_template.py::task_fit_model -->
<g id="edge27" class="edge">
<title>task_fit_model::formula&#45;&gt;task_analysis_template.py::task_fit_model</title>
<path fill="none" stroke="black" d="M430.31,-575.52C469.49,-565.69 518.57,-553.37 559.35,-543.14"/>
<polygon fill="black" stroke="black" points="560.03,-546.58 568.88,-540.75 558.33,-539.79 560.03,-546.58"/>
</g>
<!-- template_project/analysis/model_template.py -->
<g id="node23" class="node">
<title>template_project/analysis/model_template.py</title>
<polygon fill="none" stroke="black" points="809.25,-612 470,-612 470,-576 809.25,-576 809.25,-612"/>
<text xml:space="preserve" text-anchor="middle" x="639.62" y="-589.33" font-family="Times,serif" font-size="14.00">template_project/analysis/model_template.py</text>
</g>
<!-- template_project/analysis/model_template.py&#45;&gt;task_analysis_template.py::task_fit_model -->
<g id="edge28" class="edge">
<title>template_project/analysis/model_template.py&#45;&gt;task_analysis_template.py::task_fit_model</title>
<path fill="none" stroke="black" d="M639.62,-575.7C639.62,-568.41 639.62,-559.73 639.62,-551.54"/>
<polygon fill="black" stroke="black" points="643.13,-551.62 639.63,-541.62 636.13,-551.62 643.13,-551.62"/>
</g>
<!-- task_predict[marital_status]::group -->
<g id="node24" class="node">
<title>task_predict[marital_status]::group</title>
<polygon fill="none" stroke="black" points="731.62,-468 463.62,-468 463.62,-432 731.62,-432 731.62,-468"/>
<text xml:space="preserve" text-anchor="middle" x="597.62" y="-445.32" font-family="Times,serif" font-size="14.00">task_predict[marital_status]::group</text>
</g>
<!-- task_predict[marital_status]::group&#45;&gt;task_analysis_template.py::task_predict[marital_status] -->
<g id="edge30" class="edge">
<title>task_predict[marital_status]::group&#45;&gt;task_analysis_template.py::task_predict[marital_status]</title>
<path fill="none" stroke="black" d="M597.62,-431.7C597.62,-424.41 597.62,-415.73 597.62,-407.54"/>
<polygon fill="black" stroke="black" points="601.13,-407.62 597.63,-397.62 594.13,-407.62 601.13,-407.62"/>
</g>
<!-- template_project/analysis/predict_template.py -->
<g id="node25" class="node">
<title>template_project/analysis/predict_template.py</title>
<polygon fill="none" stroke="black" points="1334,-468 987.25,-468 987.25,-432 1334,-432 1334,-468"/>
<text xml:space="preserve" text-anchor="middle" x="1160.62" y="-445.32" font-family="Times,serif" font-size="14.00">template_project/analysis/predict_template.py</text>
</g>
<!-- template_project/analysis/predict_template.py&#45;&gt;task_analysis_template.py::task_predict[marital_status] -->
<g id="edge31" class="edge">
<title>template_project/analysis/predict_template.py&#45;&gt;task_analysis_template.py::task_predict[marital_status]</title>
<path fill="none" stroke="black" d="M1020.01,-431.52C937.56,-421.27 833.4,-408.31 749.14,-397.84"/>
<polygon fill="black" stroke="black" points="749.77,-394.39 739.41,-396.63 748.91,-401.34 749.77,-394.39"/>
</g>
<!-- template_project/analysis/predict_template.py&#45;&gt;task_analysis_template.py::task_predict[highest_qualification] -->
<g id="edge32" class="edge">
<title>template_project/analysis/predict_template.py&#45;&gt;task_analysis_template.py::task_predict[highest_qualification]</title>
<path fill="none" stroke="black" d="M1328.72,-431.52C1427.88,-421.2 1553.33,-408.15 1654.38,-397.64"/>
<polygon fill="black" stroke="black" points="1654.55,-401.15 1664.13,-396.63 1653.82,-394.18 1654.55,-401.15"/>
</g>
<!-- task_predict[highest_qualification]::group -->
<g id="node26" class="node">
<title>task_predict[highest_qualification]::group</title>
<polygon fill="none" stroke="black" points="2175.12,-468 1862.12,-468 1862.12,-432 2175.12,-432 2175.12,-468"/>
<text xml:space="preserve" text-anchor="middle" x="2018.62" y="-445.32" font-family="Times,serif" font-size="14.00">task_predict[highest_qualification]::group</text>
</g>
<!-- task_predict[highest_qualification]::group&#45;&gt;task_analysis_template.py::task_predict[highest_qualification] -->
<g id="edge34" class="edge">
<title>task_predict[highest_qualification]::group&#45;&gt;task_analysis_template.py::task_predict[highest_qualification]</title>
<path fill="none" stroke="black" d="M1972.42,-431.52C1947.49,-422.08 1916.52,-410.37 1890.17,-400.39"/>
<polygon fill="black" stroke="black" points="1891.57,-397.18 1880.98,-396.92 1889.09,-403.73 1891.57,-397.18"/>
</g>
<!-- documents/presentation.md -->
<g id="node28" class="node">
<title>documents/presentation.md</title>
<polygon fill="none" stroke="black" points="436.75,-180 220.5,-180 220.5,-144 436.75,-144 436.75,-180"/>
<text xml:space="preserve" text-anchor="middle" x="328.62" y="-157.32" font-family="Times,serif" font-size="14.00">documents/presentation.md</text>
</g>
<!-- documents/presentation.md&#45;&gt;task_documents.py::task_compile_presentation -->
<g id="edge36" class="edge">
<title>documents/presentation.md&#45;&gt;task_documents.py::task_compile_presentation</title>
<path fill="none" stroke="black" d="M406.55,-143.52C450.65,-133.62 505.98,-121.21 551.76,-110.94"/>
<polygon fill="black" stroke="black" points="552.41,-114.38 561.41,-108.77 550.88,-107.55 552.41,-114.38"/>
</g>
<!-- documents/myst.yml -->
<g id="node30" class="node">
<title>documents/myst.yml</title>
<polygon fill="none" stroke="black" points="1332.88,-180 1168.38,-180 1168.38,-144 1332.88,-144 1332.88,-180"/>
<text xml:space="preserve" text-anchor="middle" x="1250.62" y="-157.32" font-family="Times,serif" font-size="14.00">documents/myst.yml</text>
</g>
<!-- documents/myst.yml&#45;&gt;task_documents.py::task_compile_paper -->
<g id="edge38" class="edge">
<title>documents/myst.yml&#45;&gt;task_documents.py::task_compile_paper</title>
<path fill="none" stroke="black" d="M1250.62,-143.7C1250.62,-136.41 1250.62,-127.73 1250.62,-119.54"/>
<polygon fill="black" stroke="black" points="1254.13,-119.62 1250.63,-109.62 1247.13,-119.62 1254.13,-119.62"/>
</g>
<!-- documents/paper.md -->
<g id="node31" class="node">
<title>documents/paper.md</title>
<polygon fill="none" stroke="black" points="1516.25,-180 1351,-180 1351,-144 1516.25,-144 1516.25,-180"/>
<text xml:space="preserve" text-anchor="middle" x="1433.62" y="-157.32" font-family="Times,serif" font-size="14.00">documents/paper.md</text>
</g>
<!-- documents/paper.md&#45;&gt;task_documents.py::task_compile_paper -->
<g id="edge39" class="edge">
<title>documents/paper.md&#45;&gt;task_documents.py::task_compile_paper</title>
<path fill="none" stroke="black" d="M1387.92,-143.52C1363.26,-134.08 1332.63,-122.37 1306.55,-112.39"/>
<polygon fill="black" stroke="black" points="1308.07,-109.23 1297.48,-108.92 1305.57,-115.76 1308.07,-109.23"/>
</g>
<!-- documents/refs.bib -->
<g id="node32" class="node">
<title>documents/refs.bib</title>
<polygon fill="none" stroke="black" points="1687.25,-180 1534,-180 1534,-144 1687.25,-144 1687.25,-180"/>
<text xml:space="preserve" text-anchor="middle" x="1610.62" y="-157.32" font-family="Times,serif" font-size="14.00">documents/refs.bib</text>
</g>
<!-- documents/refs.bib&#45;&gt;task_documents.py::task_compile_paper -->
<g id="edge40" class="edge">
<title>documents/refs.bib&#45;&gt;task_documents.py::task_compile_paper</title>
<path fill="none" stroke="black" d="M1533.72,-145.59C1530.99,-145.05 1528.28,-144.52 1525.62,-144 1468.62,-132.81 1404.92,-120.52 1353.2,-110.59"/>
<polygon fill="black" stroke="black" points="1353.98,-107.18 1343.5,-108.73 1352.66,-114.05 1353.98,-107.18"/>
</g>
</g>
</svg>
