<?xml version="1.0" encoding="UTF-8" standalone="no"?>
<!DOCTYPE svg PUBLIC "-//W3C//DTD SVG 1.1//EN"
 "http://www.w3.org/Graphics/SVG/1.1/DTD/svg11.dtd">
<!-- Generated by graphviz version 14.1.1 (20260118.1130)
 -->
<!-- Pages: 1 -->
<svg width="2701pt" height="764pt"
 viewBox="0.00 0.00 2701.00 764.00" xmlns="http://www.w3.org/2000/svg" xmlns:xlink="http://www.w3.org/1999/xlink">
<g id="graph0" class="graph" transform="scale(1 1) rotate(0) translate(4 760)">
<polygon fill="white" stroke="none" points="-4,4 -4,-760 2696.91,-760 2696.91,4 -4,4"/>
<!-- task_final_template.py::task_create_results_table -->
<g id="node1" class="node">
<title>task_final_template.py::task_create_results_table</title>
<polygon fill="none" stroke="black" points="1784.76,-234 1636.74,-252 1340.68,-252 1192.65,-234 1340.68,-216 1636.74,-216 1784.76,-234"/>
<text xml:space="preserve" text-anchor="middle" x="1488.71" y="-229.32" font-family="Times,serif" font-size="14.00">task_final_template.py::task_create_results_table</text>
</g>
<!-- documents/tables/estimation_results.md -->
<g id="node2" class="node">
<title>documents/tables/estimation_results.md</title>
<polygon fill="none" stroke="black" points="1470.46,-180 1164.96,-180 1164.96,-144 1470.46,-144 1470.46,-180"/>
<text xml:space="preserve" text-anchor="middle" x="1317.71" y="-157.32" font-family="Times,serif" font-size="14.00">documents/tables/estimation_results.md</text>
</g>
<!-- task_final_template.py::task_create_results_table&#45;&gt;documents/tables/estimation_results.md -->
<g id="edge1" class="edge">
<title>task_final_template.py::task_create_results_table&#45;&gt;documents/tables/estimation_results.md</title>
<path fill="none" stroke="black" d="M1446,-215.52C1423.16,-206.17 1394.84,-194.57 1370.62,-184.66"/>
<polygon fill="black" stroke="black" points="1372.15,-181.5 1361.57,-180.96 1369.5,-187.98 1372.15,-181.5"/>
</g>
<!-- task_documents.py::task_compile_paper[paper&#45;pdf] -->
<g id="node9" class="node">
<title>task_documents.py::task_compile_paper[paper&#45;pdf]</title>
<polygon fill="none" stroke="black" points="1269.52,-90 1115.12,-108 806.3,-108 651.9,-90 806.3,-72 1115.12,-72 1269.52,-90"/>
<text xml:space="preserve" text-anchor="middle" x="960.71" y="-85.33" font-family="Times,serif" font-size="14.00">task_documents.py::task_compile_paper[paper&#45;pdf]</text>
</g>
<!-- documents/tables/estimation_results.md&#45;&gt;task_documents.py::task_compile_paper[paper&#45;pdf] -->
<g id="edge8" class="edge">
<title>documents/tables/estimation_results.md&#45;&gt;task_documents.py::task_compile_paper[paper&#45;pdf]</title>
<path fill="none" stroke="black" d="M1228.54,-143.52C1177.55,-133.52 1113.44,-120.95 1060.73,-110.61"/>
<polygon fill="black" stroke="black" points="1061.64,-107.22 1051.15,-108.73 1060.29,-114.09 1061.64,-107.22"/>
</g>
<!-- task_documents.py::task_compile_paper[paper&#45;html] -->
<g id="node10" class="node">
<title>task_documents.py::task_compile_paper[paper&#45;html]</title>
<polygon fill="none" stroke="black" points="633.42,-90 475.06,-108 158.35,-108 0,-90 158.35,-72 475.06,-72 633.42,-90"/>
<text xml:space="preserve" text-anchor="middle" x="316.71" y="-85.33" font-family="Times,serif" font-size="14.00">task_documents.py::task_compile_paper[paper&#45;html]</text>
</g>
<!-- documents/tables/estimation_results.md&#45;&gt;task_documents.py::task_compile_paper[paper&#45;html] -->
<g id="edge9" class="edge">
<title>documents/tables/estimation_results.md&#45;&gt;task_documents.py::task_compile_paper[paper&#45;html]</title>
<path fill="none" stroke="black" d="M1164.67,-144.77C1161.66,-144.51 1158.67,-144.25 1155.71,-144 948.21,-126.57 711.41,-112.1 542.41,-102.71"/>
<polygon fill="black" stroke="black" points="542.82,-99.23 532.64,-102.17 542.43,-106.22 542.82,-99.23"/>
</g>
<!-- task_documents.py::task_compile_presentation -->
<g id="node11" class="node">
<title>task_documents.py::task_compile_presentation</title>
<polygon fill="none" stroke="black" points="1856.22,-90 1713.97,-108 1429.45,-108 1287.2,-90 1429.45,-72 1713.97,-72 1856.22,-90"/>
<text xml:space="preserve" text-anchor="middle" x="1571.71" y="-85.33" font-family="Times,serif" font-size="14.00">task_documents.py::task_compile_presentation</text>
</g>
<!-- documents/tables/estimation_results.md&#45;&gt;task_documents.py::task_compile_presentation -->
<g id="edge10" class="edge">
<title>documents/tables/estimation_results.md&#45;&gt;task_documents.py::task_compile_presentation</title>
<path fill="none" stroke="black" d="M1381.15,-143.52C1416.59,-133.75 1460.93,-121.53 1497.92,-111.34"/>
<polygon fill="black" stroke="black" points="1498.47,-114.81 1507.18,-108.78 1496.61,-108.07 1498.47,-114.81"/>
</g>
<!-- econ&#45;project&#45;templates/bld/estimation_results/baseline.pickle -->
<g id="node3" class="node">
<title>econ&#45;project&#45;templates/bld/estimation_results/baseline.pickle</title>
<polygon fill="none" stroke="black" points="2035.33,-468 1582.08,-468 1582.08,-432 2035.33,-432 2035.33,-468"/>
<text xml:space="preserve" text-anchor="middle" x="1808.71" y="-445.32" font-family="Times,serif" font-size="14.00">econ&#45;project&#45;templates/bld/estimation_results/baseline.pickle</text>
</g>
<!-- econ&#45;project&#45;templates/bld/estimation_results/baseline.pickle&#45;&gt;task_final_template.py::task_create_results_table -->
<g id="edge2" class="edge">
<title>econ&#45;project&#45;templates/bld/estimation_results/baseline.pickle&#45;&gt;task_final_template.py::task_create_results_table</title>
<path fill="none" stroke="black" d="M1655.95,-431.5C1524.84,-412.97 1350.44,-378.71 1307.71,-324 1281.71,-290.71 1320.4,-269.03 1368.59,-255.42"/>
<polygon fill="black" stroke="black" points="1369.44,-258.81 1378.2,-252.85 1367.63,-252.05 1369.44,-258.81"/>
</g>
<!-- task_analysis_template.py::task_predict[marital_status] -->
<g id="node4" class="node">
<title>task_analysis_template.py::task_predict[marital_status]</title>
<polygon fill="none" stroke="black" points="1162.04,-378 994.87,-396 660.55,-396 493.38,-378 660.55,-360 994.87,-360 1162.04,-378"/>
<text xml:space="preserve" text-anchor="middle" x="827.71" y="-373.32" font-family="Times,serif" font-size="14.00">task_analysis_template.py::task_predict[marital_status]</text>
</g>
<!-- econ&#45;project&#45;templates/bld/estimation_results/baseline.pickle&#45;&gt;task_analysis_template.py::task_predict[marital_status] -->
<g id="edge3" class="edge">
<title>econ&#45;project&#45;templates/bld/estimation_results/baseline.pickle&#45;&gt;task_analysis_template.py::task_predict[marital_status]</title>
<path fill="none" stroke="black" d="M1581.68,-432.64C1578.67,-432.43 1575.68,-432.21 1572.71,-432 1391.96,-419.06 1186.53,-404.45 1037.24,-393.86"/>
<polygon fill="black" stroke="black" points="1037.87,-390.39 1027.65,-393.18 1037.37,-397.37 1037.87,-390.39"/>
</g>
<!-- task_analysis_template.py::task_predict[highest_qualification] -->
<g id="node5" class="node">
<title>task_analysis_template.py::task_predict[highest_qualification]</title>
<polygon fill="none" stroke="black" points="2434.49,-378 2249.1,-396 1878.32,-396 1692.93,-378 1878.32,-360 2249.1,-360 2434.49,-378"/>
<text xml:space="preserve" text-anchor="middle" x="2063.71" y="-373.32" font-family="Times,serif" font-size="14.00">task_analysis_template.py::task_predict[highest_qualification]</text>
</g>
<!-- econ&#45;project&#45;templates/bld/estimation_results/baseline.pickle&#45;&gt;task_analysis_template.py::task_predict[highest_qualification] -->
<g id="edge4" class="edge">
<title>econ&#45;project&#45;templates/bld/estimation_results/baseline.pickle&#45;&gt;task_analysis_template.py::task_predict[highest_qualification]</title>
<path fill="none" stroke="black" d="M1872.4,-431.52C1907.98,-421.75 1952.49,-409.53 1989.63,-399.34"/>
<polygon fill="black" stroke="black" points="1990.21,-402.8 1998.93,-396.78 1988.36,-396.05 1990.21,-402.8"/>
</g>
<!-- econ&#45;project&#45;templates/bld/predictions/marital_status.pickle -->
<g id="node16" class="node">
<title>econ&#45;project&#45;templates/bld/predictions/marital_status.pickle</title>
<polygon fill="none" stroke="black" points="1050.21,-324 605.21,-324 605.21,-288 1050.21,-288 1050.21,-324"/>
<text xml:space="preserve" text-anchor="middle" x="827.71" y="-301.32" font-family="Times,serif" font-size="14.00">econ&#45;project&#45;templates/bld/predictions/marital_status.pickle</text>
</g>
<!-- task_analysis_template.py::task_predict[marital_status]&#45;&gt;econ&#45;project&#45;templates/bld/predictions/marital_status.pickle -->
<g id="edge28" class="edge">
<title>task_analysis_template.py::task_predict[marital_status]&#45;&gt;econ&#45;project&#45;templates/bld/predictions/marital_status.pickle</title>
<path fill="none" stroke="black" d="M827.71,-359.7C827.71,-352.41 827.71,-343.73 827.71,-335.54"/>
<polygon fill="black" stroke="black" points="831.21,-335.62 827.71,-325.62 824.21,-335.62 831.21,-335.62"/>
</g>
<!-- econ&#45;project&#45;templates/bld/predictions/highest_qualification.pickle -->
<g id="node19" class="node">
<title>econ&#45;project&#45;templates/bld/predictions/highest_qualification.pickle</title>
<polygon fill="none" stroke="black" points="2540.71,-324 2050.71,-324 2050.71,-288 2540.71,-288 2540.71,-324"/>
<text xml:space="preserve" text-anchor="middle" x="2295.71" y="-301.32" font-family="Times,serif" font-size="14.00">econ&#45;project&#45;templates/bld/predictions/highest_qualification.pickle</text>
</g>
<!-- task_analysis_template.py::task_predict[highest_qualification]&#45;&gt;econ&#45;project&#45;templates/bld/predictions/highest_qualification.pickle -->
<g id="edge32" class="edge">
<title>task_analysis_template.py::task_predict[highest_qualification]&#45;&gt;econ&#45;project&#45;templates/bld/predictions/highest_qualification.pickle</title>
<path fill="none" stroke="black" d="M2121.65,-359.52C2153.75,-349.83 2193.83,-337.74 2227.44,-327.6"/>
<polygon fill="black" stroke="black" points="2228.09,-331.06 2236.65,-324.82 2226.07,-324.36 2228.09,-331.06"/>
</g>
<!-- template_project/final/plot_template.py -->
<g id="node6" class="node">
<title>template_project/final/plot_template.py</title>
<polygon fill="none" stroke="black" points="1612.96,-324 1316.46,-324 1316.46,-288 1612.96,-288 1612.96,-324"/>
<text xml:space="preserve" text-anchor="middle" x="1464.71" y="-301.32" font-family="Times,serif" font-size="14.00">template_project/final/plot_template.py</text>
</g>
<!-- template_project/final/plot_template.py&#45;&gt;task_final_template.py::task_create_results_table -->
<g id="edge5" class="edge">
<title>template_project/final/plot_template.py&#45;&gt;task_final_template.py::task_create_results_table</title>
<path fill="none" stroke="black" d="M1470.64,-287.7C1473.2,-280.24 1476.26,-271.32 1479.12,-262.97"/>
<polygon fill="black" stroke="black" points="1482.42,-264.13 1482.35,-253.54 1475.8,-261.86 1482.42,-264.13"/>
</g>
<!-- task_final_template.py::task_plot_results_by_age[marital_status] -->
<g id="node7" class="node">
<title>task_final_template.py::task_plot_results_by_age[marital_status]</title>
<polygon fill="none" stroke="black" points="1174.46,-234 982.08,-252 597.33,-252 404.96,-234 597.33,-216 982.08,-216 1174.46,-234"/>
<text xml:space="preserve" text-anchor="middle" x="789.71" y="-229.32" font-family="Times,serif" font-size="14.00">task_final_template.py::task_plot_results_by_age[marital_status]</text>
</g>
<!-- template_project/final/plot_template.py&#45;&gt;task_final_template.py::task_plot_results_by_age[marital_status] -->
<g id="edge6" class="edge">
<title>template_project/final/plot_template.py&#45;&gt;task_final_template.py::task_plot_results_by_age[marital_status]</title>
<path fill="none" stroke="black" d="M1316.16,-289.59C1214.1,-279.01 1078.01,-264.9 969.77,-253.67"/>
<polygon fill="black" stroke="black" points="970.2,-250.2 959.9,-252.65 969.48,-257.16 970.2,-250.2"/>
</g>
<!-- task_final_template.py::task_plot_results_by_age[highest_qualification] -->
<g id="node8" class="node">
<title>task_final_template.py::task_plot_results_by_age[highest_qualification]</title>
<polygon fill="none" stroke="black" points="2692.91,-234 2482.31,-252 2061.11,-252 1850.51,-234 2061.11,-216 2482.31,-216 2692.91,-234"/>
<text xml:space="preserve" text-anchor="middle" x="2271.71" y="-229.32" font-family="Times,serif" font-size="14.00">task_final_template.py::task_plot_results_by_age[highest_qualification]</text>
</g>
<!-- template_project/final/plot_template.py&#45;&gt;task_final_template.py::task_plot_results_by_age[highest_qualification] -->
<g id="edge7" class="edge">
<title>template_project/final/plot_template.py&#45;&gt;task_final_template.py::task_plot_results_by_age[highest_qualification]</title>
<path fill="none" stroke="black" d="M1613.45,-288.79C1616.22,-288.52 1618.98,-288.26 1621.71,-288 1760.12,-274.87 1915.3,-262.14 2039.31,-252.45"/>
<polygon fill="black" stroke="black" points="2039.25,-255.96 2048.95,-251.7 2038.71,-248.98 2039.25,-255.96"/>
</g>
<!-- documents/public/smoking_by_marital_status.png -->
<g id="node12" class="node">
<title>documents/public/smoking_by_marital_status.png</title>
<polygon fill="none" stroke="black" points="1146.46,-180 774.96,-180 774.96,-144 1146.46,-144 1146.46,-180"/>
<text xml:space="preserve" text-anchor="middle" x="960.71" y="-157.32" font-family="Times,serif" font-size="14.00">documents/public/smoking_by_marital_status.png</text>
</g>
<!-- task_final_template.py::task_plot_results_by_age[marital_status]&#45;&gt;documents/public/smoking_by_marital_status.png -->
<g id="edge11" class="edge">
<title>task_final_template.py::task_plot_results_by_age[marital_status]&#45;&gt;documents/public/smoking_by_marital_status.png</title>
<path fill="none" stroke="black" d="M832.42,-215.52C855.25,-206.17 883.58,-194.57 907.8,-184.66"/>
<polygon fill="black" stroke="black" points="908.92,-187.98 916.85,-180.96 906.27,-181.5 908.92,-187.98"/>
</g>
<!-- documents/public/smoking_by_highest_qualification.png -->
<g id="node17" class="node">
<title>documents/public/smoking_by_highest_qualification.png</title>
<polygon fill="none" stroke="black" points="2479.96,-180 2063.46,-180 2063.46,-144 2479.96,-144 2479.96,-180"/>
<text xml:space="preserve" text-anchor="middle" x="2271.71" y="-157.32" font-family="Times,serif" font-size="14.00">documents/public/smoking_by_highest_qualification.png</text>
</g>
<!-- task_final_template.py::task_plot_results_by_age[highest_qualification]&#45;&gt;documents/public/smoking_by_highest_qualification.png -->
<g id="edge22" class="edge">
<title>task_final_template.py::task_plot_results_by_age[highest_qualification]&#45;&gt;documents/public/smoking_by_highest_qualification.png</title>
<path fill="none" stroke="black" d="M2271.71,-215.7C2271.71,-208.41 2271.71,-199.73 2271.71,-191.54"/>
<polygon fill="black" stroke="black" points="2275.21,-191.62 2271.71,-181.62 2268.21,-191.62 2275.21,-191.62"/>
</g>
<!-- econ&#45;project&#45;templates/paper.pdf -->
<g id="node28" class="node">
<title>econ&#45;project&#45;templates/paper.pdf</title>
<polygon fill="none" stroke="black" points="1086.46,-36 834.96,-36 834.96,0 1086.46,0 1086.46,-36"/>
<text xml:space="preserve" text-anchor="middle" x="960.71" y="-13.32" font-family="Times,serif" font-size="14.00">econ&#45;project&#45;templates/paper.pdf</text>
</g>
<!-- task_documents.py::task_compile_paper[paper&#45;pdf]&#45;&gt;econ&#45;project&#45;templates/paper.pdf -->
<g id="edge37" class="edge">
<title>task_documents.py::task_compile_paper[paper&#45;pdf]&#45;&gt;econ&#45;project&#45;templates/paper.pdf</title>
<path fill="none" stroke="black" d="M960.71,-71.7C960.71,-64.41 960.71,-55.73 960.71,-47.54"/>
<polygon fill="black" stroke="black" points="964.21,-47.62 960.71,-37.62 957.21,-47.62 964.21,-47.62"/>
</g>
<!-- econ&#45;project&#45;templates/_build/html/index.html -->
<g id="node32" class="node">
<title>econ&#45;project&#45;templates/_build/html/index.html</title>
<polygon fill="none" stroke="black" points="489.33,-36 144.08,-36 144.08,0 489.33,0 489.33,-36"/>
<text xml:space="preserve" text-anchor="middle" x="316.71" y="-13.32" font-family="Times,serif" font-size="14.00">econ&#45;project&#45;templates/_build/html/index.html</text>
</g>
<!-- task_documents.py::task_compile_paper[paper&#45;html]&#45;&gt;econ&#45;project&#45;templates/_build/html/index.html -->
<g id="edge44" class="edge">
<title>task_documents.py::task_compile_paper[paper&#45;html]&#45;&gt;econ&#45;project&#45;templates/_build/html/index.html</title>
<path fill="none" stroke="black" d="M316.71,-71.7C316.71,-64.41 316.71,-55.73 316.71,-47.54"/>
<polygon fill="black" stroke="black" points="320.21,-47.62 316.71,-37.62 313.21,-47.62 320.21,-47.62"/>
</g>
<!-- econ&#45;project&#45;templates/presentation.pdf -->
<g id="node33" class="node">
<title>econ&#45;project&#45;templates/presentation.pdf</title>
<polygon fill="none" stroke="black" points="1722.96,-36 1420.46,-36 1420.46,0 1722.96,0 1722.96,-36"/>
<text xml:space="preserve" text-anchor="middle" x="1571.71" y="-13.32" font-family="Times,serif" font-size="14.00">econ&#45;project&#45;templates/presentation.pdf</text>
</g>
<!-- task_documents.py::task_compile_presentation&#45;&gt;econ&#45;project&#45;templates/presentation.pdf -->
<g id="edge45" class="edge">
<title>task_documents.py::task_compile_presentation&#45;&gt;econ&#45;project&#45;templates/presentation.pdf</title>
<path fill="none" stroke="black" d="M1571.71,-71.7C1571.71,-64.41 1571.71,-55.73 1571.71,-47.54"/>
<polygon fill="black" stroke="black" points="1575.21,-47.62 1571.71,-37.62 1568.21,-47.62 1575.21,-47.62"/>
</g>
<!-- documents/public/smoking_by_marital_status.png&#45;&gt;task_documents.py::task_compile_paper[paper&#45;pdf] -->
<g id="edge19" class="edge">
<title>documents/public/smoking_by_marital_status.png&#45;&gt;task_documents.py::task_compile_paper[paper&#45;pdf]</title>
<path fill="none" stroke="black" d="M960.71,-143.7C960.71,-136.41 960.71,-127.73 960.71,-119.54"/>
<polygon fill="black" stroke="black" points="964.21,-119.62 960.71,-109.62 957.21,-119.62 964.21,-119.62"/>
</g>
<!-- documents/public/smoking_by_marital_status.png&#45;&gt;task_documents.py::task_compile_paper[paper&#45;html] -->
<g id="edge20" class="edge">
<title>documents/public/smoking_by_marital_status.png&#45;&gt;task_documents.py::task_compile_paper[paper&#45;html]</title>
<path fill="none" stroke="black" d="M799.86,-143.52C704.81,-133.18 584.5,-120.11 487.72,-109.59"/>
<polygon fill="black" stroke="black" points="488.17,-106.12 477.85,-108.51 487.41,-113.08 488.17,-106.12"/>
</g>
<!-- documents/public/smoking_by_marital_status.png&#45;&gt;task_documents.py::task_compile_presentation -->
<g id="edge21" class="edge">
<title>documents/public/smoking_by_marital_status.png&#45;&gt;task_documents.py::task_compile_presentation</title>
<path fill="none" stroke="black" d="M1113.31,-143.52C1204.67,-133.05 1320.61,-119.77 1413.03,-109.18"/>
<polygon fill="black" stroke="black" points="1413.43,-112.66 1422.97,-108.04 1412.63,-105.7 1413.43,-112.66"/>
</g>
<!-- econ&#45;project&#45;templates/bld/data/stats4schools_smoking.pickle -->
<g id="node13" class="node">
<title>econ&#45;project&#45;templates/bld/data/stats4schools_smoking.pickle</title>
<polygon fill="none" stroke="black" points="1514.21,-612 1057.21,-612 1057.21,-576 1514.21,-576 1514.21,-612"/>
<text xml:space="preserve" text-anchor="middle" x="1285.71" y="-589.33" font-family="Times,serif" font-size="14.00">econ&#45;project&#45;templates/bld/data/stats4schools_smoking.pickle</text>
</g>
<!-- econ&#45;project&#45;templates/bld/data/stats4schools_smoking.pickle&#45;&gt;task_analysis_template.py::task_predict[marital_status] -->
<g id="edge15" class="edge">
<title>econ&#45;project&#45;templates/bld/data/stats4schools_smoking.pickle&#45;&gt;task_analysis_template.py::task_predict[marital_status]</title>
<path fill="none" stroke="black" d="M1243.39,-575.58C1222.38,-566.19 1197,-553.73 1175.71,-540 1154.77,-526.49 1153.86,-517.19 1132.71,-504 1065.85,-462.31 1043.69,-461.71 970.71,-432 943.67,-420.99 913.4,-409.64 887.7,-400.27"/>
<polygon fill="black" stroke="black" points="889,-397.02 878.4,-396.91 886.61,-403.61 889,-397.02"/>
</g>
<!-- econ&#45;project&#45;templates/bld/data/stats4schools_smoking.pickle&#45;&gt;task_analysis_template.py::task_predict[highest_qualification] -->
<g id="edge16" class="edge">
<title>econ&#45;project&#45;templates/bld/data/stats4schools_smoking.pickle&#45;&gt;task_analysis_template.py::task_predict[highest_qualification]</title>
<path fill="none" stroke="black" d="M1514.31,-583.18C1709.49,-569.95 1970.12,-539.15 2044.71,-468 2060.71,-452.74 2064.89,-427.56 2065.4,-407.88"/>
<polygon fill="black" stroke="black" points="2068.9,-407.95 2065.32,-397.98 2061.9,-408 2068.9,-407.95"/>
</g>
<!-- econ&#45;project&#45;templates/bld/data/stats4schools_smoking.pickle&#45;&gt;task_final_template.py::task_plot_results_by_age[marital_status] -->
<g id="edge12" class="edge">
<title>econ&#45;project&#45;templates/bld/data/stats4schools_smoking.pickle&#45;&gt;task_final_template.py::task_plot_results_by_age[marital_status]</title>
<path fill="none" stroke="black" d="M1263.93,-575.83C1235.6,-551.39 1189.71,-503.67 1189.71,-451 1189.71,-451 1189.71,-451 1189.71,-377 1189.71,-350.52 1261.09,-369.51 1059.71,-288 1023.08,-273.17 981.93,-262.39 943.01,-254.6"/>
<polygon fill="black" stroke="black" points="944.06,-251.24 933.58,-252.76 942.73,-258.11 944.06,-251.24"/>
</g>
<!-- econ&#45;project&#45;templates/bld/data/stats4schools_smoking.pickle&#45;&gt;task_final_template.py::task_plot_results_by_age[highest_qualification] -->
<g id="edge13" class="edge">
<title>econ&#45;project&#45;templates/bld/data/stats4schools_smoking.pickle&#45;&gt;task_final_template.py::task_plot_results_by_age[highest_qualification]</title>
<path fill="none" stroke="black" d="M1514.34,-590.46C1883.21,-583.28 2568.71,-555.84 2568.71,-451 2568.71,-451 2568.71,-451 2568.71,-377 2568.71,-336.55 2578.62,-316.28 2549.71,-288 2534.6,-273.22 2498.23,-262.38 2456.6,-254.51"/>
<polygon fill="black" stroke="black" points="2457.28,-251.08 2446.82,-252.74 2456.04,-257.97 2457.28,-251.08"/>
</g>
<!-- task_analysis_template.py::task_fit_model -->
<g id="node14" class="node">
<title>task_analysis_template.py::task_fit_model</title>
<polygon fill="none" stroke="black" points="1123.85,-522 996.78,-540 742.64,-540 615.57,-522 742.64,-504 996.78,-504 1123.85,-522"/>
<text xml:space="preserve" text-anchor="middle" x="869.71" y="-517.33" font-family="Times,serif" font-size="14.00">task_analysis_template.py::task_fit_model</text>
</g>
<!-- econ&#45;project&#45;templates/bld/data/stats4schools_smoking.pickle&#45;&gt;task_analysis_template.py::task_fit_model -->
<g id="edge14" class="edge">
<title>econ&#45;project&#45;templates/bld/data/stats4schools_smoking.pickle&#45;&gt;task_analysis_template.py::task_fit_model</title>
<path fill="none" stroke="black" d="M1181.81,-575.52C1121.76,-565.41 1046.12,-552.68 984.34,-542.29"/>
<polygon fill="black" stroke="black" points="985.3,-538.9 974.86,-540.69 984.14,-545.8 985.3,-538.9"/>
</g>
<!-- task_analysis_template.py::task_fit_model&#45;&gt;econ&#45;project&#45;templates/bld/estimation_results/baseline.pickle -->
<g id="edge25" class="edge">
<title>task_analysis_template.py::task_fit_model&#45;&gt;econ&#45;project&#45;templates/bld/estimation_results/baseline.pickle</title>
<path fill="none" stroke="black" d="M1033.81,-508.77C1182.27,-497.7 1402.71,-481.27 1570.56,-468.75"/>
<polygon fill="black" stroke="black" points="1570.57,-472.26 1580.28,-468.03 1570.04,-465.28 1570.57,-472.26"/>
</g>
<!-- task_plot_results_by_age[marital_status]::group -->
<g id="node15" class="node">
<title>task_plot_results_by_age[marital_status]::group</title>
<polygon fill="none" stroke="black" points="587.33,-324 230.08,-324 230.08,-288 587.33,-288 587.33,-324"/>
<text xml:space="preserve" text-anchor="middle" x="408.71" y="-301.32" font-family="Times,serif" font-size="14.00">task_plot_results_by_age[marital_status]::group</text>
</g>
<!-- task_plot_results_by_age[marital_status]::group&#45;&gt;task_final_template.py::task_plot_results_by_age[marital_status] -->
<g id="edge17" class="edge">
<title>task_plot_results_by_age[marital_status]::group&#45;&gt;task_final_template.py::task_plot_results_by_age[marital_status]</title>
<path fill="none" stroke="black" d="M503.87,-287.52C558.52,-277.48 627.29,-264.84 683.67,-254.48"/>
<polygon fill="black" stroke="black" points="684.08,-257.97 693.28,-252.72 682.82,-251.08 684.08,-257.97"/>
</g>
<!-- econ&#45;project&#45;templates/bld/predictions/marital_status.pickle&#45;&gt;task_final_template.py::task_plot_results_by_age[marital_status] -->
<g id="edge18" class="edge">
<title>econ&#45;project&#45;templates/bld/predictions/marital_status.pickle&#45;&gt;task_final_template.py::task_plot_results_by_age[marital_status]</title>
<path fill="none" stroke="black" d="M818.32,-287.7C814.13,-279.98 809.1,-270.71 804.43,-262.11"/>
<polygon fill="black" stroke="black" points="807.56,-260.55 799.72,-253.43 801.41,-263.89 807.56,-260.55"/>
</g>
<!-- task_plot_results_by_age[highest_qualification]::group -->
<g id="node18" class="node">
<title>task_plot_results_by_age[highest_qualification]::group</title>
<polygon fill="none" stroke="black" points="2032.83,-324 1630.58,-324 1630.58,-288 2032.83,-288 2032.83,-324"/>
<text xml:space="preserve" text-anchor="middle" x="1831.71" y="-301.32" font-family="Times,serif" font-size="14.00">task_plot_results_by_age[highest_qualification]::group</text>
</g>
<!-- task_plot_results_by_age[highest_qualification]::group&#45;&gt;task_final_template.py::task_plot_results_by_age[highest_qualification] -->
<g id="edge23" class="edge">
<title>task_plot_results_by_age[highest_qualification]::group&#45;&gt;task_final_template.py::task_plot_results_by_age[highest_qualification]</title>
<path fill="none" stroke="black" d="M1941.61,-287.52C2005.25,-277.39 2085.46,-264.63 2150.87,-254.22"/>
<polygon fill="black" stroke="black" points="2151.25,-257.71 2160.58,-252.68 2150.15,-250.79 2151.25,-257.71"/>
</g>
<!-- econ&#45;project&#45;templates/bld/predictions/highest_qualification.pickle&#45;&gt;task_final_template.py::task_plot_results_by_age[highest_qualification] -->
<g id="edge24" class="edge">
<title>econ&#45;project&#45;templates/bld/predictions/highest_qualification.pickle&#45;&gt;task_final_template.py::task_plot_results_by_age[highest_qualification]</title>
<path fill="none" stroke="black" d="M2289.78,-287.7C2287.22,-280.24 2284.16,-271.32 2281.3,-262.97"/>
<polygon fill="black" stroke="black" points="2284.62,-261.86 2278.06,-253.54 2278,-264.13 2284.62,-261.86"/>
</g>
<!-- task_fit_model::formula -->
<g id="node20" class="node">
<title>task_fit_model::formula</title>
<polygon fill="none" stroke="black" points="681.96,-612 499.46,-612 499.46,-576 681.96,-576 681.96,-612"/>
<text xml:space="preserve" text-anchor="middle" x="590.71" y="-589.33" font-family="Times,serif" font-size="14.00">task_fit_model::formula</text>
</g>
<!-- task_fit_model::formula&#45;&gt;task_analysis_template.py::task_fit_model -->
<g id="edge26" class="edge">
<title>task_fit_model::formula&#45;&gt;task_analysis_template.py::task_fit_model</title>
<path fill="none" stroke="black" d="M660.39,-575.52C699.57,-565.69 748.65,-553.37 789.44,-543.14"/>
<polygon fill="black" stroke="black" points="790.12,-546.58 798.96,-540.75 788.41,-539.79 790.12,-546.58"/>
</g>
<!-- template_project/analysis/model_template.py -->
<g id="node21" class="node">
<title>template_project/analysis/model_template.py</title>
<polygon fill="none" stroke="black" points="1039.33,-612 700.08,-612 700.08,-576 1039.33,-576 1039.33,-612"/>
<text xml:space="preserve" text-anchor="middle" x="869.71" y="-589.33" font-family="Times,serif" font-size="14.00">template_project/analysis/model_template.py</text>
</g>
<!-- template_project/analysis/model_template.py&#45;&gt;task_analysis_template.py::task_fit_model -->
<g id="edge27" class="edge">
<title>template_project/analysis/model_template.py&#45;&gt;task_analysis_template.py::task_fit_model</title>
<path fill="none" stroke="black" d="M869.71,-575.7C869.71,-568.41 869.71,-559.73 869.71,-551.54"/>
<polygon fill="black" stroke="black" points="873.21,-551.62 869.71,-541.62 866.21,-551.62 873.21,-551.62"/>
</g>
<!-- task_predict[marital_status]::group -->
<g id="node22" class="node">
<title>task_predict[marital_status]::group</title>
<polygon fill="none" stroke="black" points="961.71,-468 693.71,-468 693.71,-432 961.71,-432 961.71,-468"/>
<text xml:space="preserve" text-anchor="middle" x="827.71" y="-445.32" font-family="Times,serif" font-size="14.00">task_predict[marital_status]::group</text>
</g>
<!-- task_predict[marital_status]::group&#45;&gt;task_analysis_template.py::task_predict[marital_status] -->
<g id="edge29" class="edge">
<title>task_predict[marital_status]::group&#45;&gt;task_analysis_template.py::task_predict[marital_status]</title>
<path fill="none" stroke="black" d="M827.71,-431.7C827.71,-424.41 827.71,-415.73 827.71,-407.54"/>
<polygon fill="black" stroke="black" points="831.21,-407.62 827.71,-397.62 824.21,-407.62 831.21,-407.62"/>
</g>
<!-- template_project/analysis/predict_template.py -->
<g id="node23" class="node">
<title>template_project/analysis/predict_template.py</title>
<polygon fill="none" stroke="black" points="1564.08,-468 1217.33,-468 1217.33,-432 1564.08,-432 1564.08,-468"/>
<text xml:space="preserve" text-anchor="middle" x="1390.71" y="-445.32" font-family="Times,serif" font-size="14.00">template_project/analysis/predict_template.py</text>
</g>
<!-- template_project/analysis/predict_template.py&#45;&gt;task_analysis_template.py::task_predict[marital_status] -->
<g id="edge30" class="edge">
<title>template_project/analysis/predict_template.py&#45;&gt;task_analysis_template.py::task_predict[marital_status]</title>
<path fill="none" stroke="black" d="M1250.09,-431.52C1167.65,-421.27 1063.48,-408.31 979.22,-397.84"/>
<polygon fill="black" stroke="black" points="979.85,-394.39 969.5,-396.63 978.99,-401.34 979.85,-394.39"/>
</g>
<!-- template_project/analysis/predict_template.py&#45;&gt;task_analysis_template.py::task_predict[highest_qualification] -->
<g id="edge31" class="edge">
<title>template_project/analysis/predict_template.py&#45;&gt;task_analysis_template.py::task_predict[highest_qualification]</title>
<path fill="none" stroke="black" d="M1558.8,-431.52C1657.96,-421.2 1783.42,-408.15 1884.46,-397.64"/>
<polygon fill="black" stroke="black" points="1884.63,-401.15 1894.22,-396.63 1883.91,-394.18 1884.63,-401.15"/>
</g>
<!-- task_predict[highest_qualification]::group -->
<g id="node24" class="node">
<title>task_predict[highest_qualification]::group</title>
<polygon fill="none" stroke="black" points="2405.21,-468 2092.21,-468 2092.21,-432 2405.21,-432 2405.21,-468"/>
<text xml:space="preserve" text-anchor="middle" x="2248.71" y="-445.32" font-family="Times,serif" font-size="14.00">task_predict[highest_qualification]::group</text>
</g>
<!-- task_predict[highest_qualification]::group&#45;&gt;task_analysis_template.py::task_predict[highest_qualification] -->
<g id="edge33" class="edge">
<title>task_predict[highest_qualification]::group&#45;&gt;task_analysis_template.py::task_predict[highest_qualification]</title>
<path fill="none" stroke="black" d="M2202.5,-431.52C2177.58,-422.08 2146.61,-410.37 2120.25,-400.39"/>
<polygon fill="black" stroke="black" points="2121.65,-397.18 2111.06,-396.92 2119.18,-403.73 2121.65,-397.18"/>
</g>
<!-- task_data_management_template.py::task_clean_stats4schools_smoking_data -->
<g id="node25" class="node">
<title>task_data_management_template.py::task_clean_stats4schools_smoking_data</title>
<polygon fill="none" stroke="black" points="1745.79,-666 1515.75,-684 1055.67,-684 825.63,-666 1055.67,-648 1515.75,-648 1745.79,-666"/>
<text xml:space="preserve" text-anchor="middle" x="1285.71" y="-661.33" font-family="Times,serif" font-size="14.00">task_data_management_template.py::task_clean_stats4schools_smoking_data</text>
</g>
<!-- task_data_management_template.py::task_clean_stats4schools_smoking_data&#45;&gt;econ&#45;project&#45;templates/bld/data/stats4schools_smoking.pickle -->
<g id="edge34" class="edge">
<title>task_data_management_template.py::task_clean_stats4schools_smoking_data&#45;&gt;econ&#45;project&#45;templates/bld/data/stats4schools_smoking.pickle</title>
<path fill="none" stroke="black" d="M1285.71,-647.7C1285.71,-640.41 1285.71,-631.73 1285.71,-623.54"/>
<polygon fill="black" stroke="black" points="1289.21,-623.62 1285.71,-613.62 1282.21,-623.62 1289.21,-623.62"/>
</g>
<!-- template_project/data/stats4schools_smoking_template.csv -->
<g id="node26" class="node">
<title>template_project/data/stats4schools_smoking_template.csv</title>
<polygon fill="none" stroke="black" points="1253.21,-756 814.21,-756 814.21,-720 1253.21,-720 1253.21,-756"/>
<text xml:space="preserve" text-anchor="middle" x="1033.71" y="-733.33" font-family="Times,serif" font-size="14.00">template_project/data/stats4schools_smoking_template.csv</text>
</g>
<!-- template_project/data/stats4schools_smoking_template.csv&#45;&gt;task_data_management_template.py::task_clean_stats4schools_smoking_data -->
<g id="edge35" class="edge">
<title>template_project/data/stats4schools_smoking_template.csv&#45;&gt;task_data_management_template.py::task_clean_stats4schools_smoking_data</title>
<path fill="none" stroke="black" d="M1096.65,-719.52C1131.81,-709.75 1175.8,-697.53 1212.5,-687.34"/>
<polygon fill="black" stroke="black" points="1212.98,-690.84 1221.68,-684.79 1211.11,-684.09 1212.98,-690.84"/>
</g>
<!-- template_project/data_management/stats4schools_smoking_template.py -->
<g id="node27" class="node">
<title>template_project/data_management/stats4schools_smoking_template.py</title>
<polygon fill="none" stroke="black" points="1804.08,-756 1271.33,-756 1271.33,-720 1804.08,-720 1804.08,-756"/>
<text xml:space="preserve" text-anchor="middle" x="1537.71" y="-733.33" font-family="Times,serif" font-size="14.00">template_project/data_management/stats4schools_smoking_template.py</text>
</g>
<!-- template_project/data_management/stats4schools_smoking_template.py&#45;&gt;task_data_management_template.py::task_clean_stats4schools_smoking_data -->
<g id="edge36" class="edge">
<title>template_project/data_management/stats4schools_smoking_template.py&#45;&gt;task_data_management_template.py::task_clean_stats4schools_smoking_data</title>
<path fill="none" stroke="black" d="M1474.77,-719.52C1439.61,-709.75 1395.62,-697.53 1358.92,-687.34"/>
<polygon fill="black" stroke="black" points="1360.31,-684.09 1349.74,-684.79 1358.44,-690.84 1360.31,-684.09"/>
</g>
<!-- econ&#45;project&#45;templates/myst.yml -->
<g id="node29" class="node">
<title>econ&#45;project&#45;templates/myst.yml</title>
<polygon fill="none" stroke="black" points="402.71,-180 152.71,-180 152.71,-144 402.71,-144 402.71,-180"/>
<text xml:space="preserve" text-anchor="middle" x="277.71" y="-157.32" font-family="Times,serif" font-size="14.00">econ&#45;project&#45;templates/myst.yml</text>
</g>
<!-- econ&#45;project&#45;templates/myst.yml&#45;&gt;task_documents.py::task_compile_paper[paper&#45;pdf] -->
<g id="edge38" class="edge">
<title>econ&#45;project&#45;templates/myst.yml&#45;&gt;task_documents.py::task_compile_paper[paper&#45;pdf]</title>
<path fill="none" stroke="black" d="M402.88,-145C405.85,-144.66 408.8,-144.33 411.71,-144 533.26,-130.43 670.19,-117.2 776.89,-107.36"/>
<polygon fill="black" stroke="black" points="776.96,-110.87 786.6,-106.47 776.32,-103.9 776.96,-110.87"/>
</g>
<!-- econ&#45;project&#45;templates/myst.yml&#45;&gt;task_documents.py::task_compile_paper[paper&#45;html] -->
<g id="edge39" class="edge">
<title>econ&#45;project&#45;templates/myst.yml&#45;&gt;task_documents.py::task_compile_paper[paper&#45;html]</title>
<path fill="none" stroke="black" d="M287.35,-143.7C291.65,-135.98 296.81,-126.71 301.6,-118.11"/>
<polygon fill="black" stroke="black" points="304.63,-119.87 306.44,-109.43 298.52,-116.46 304.63,-119.87"/>
</g>
<!-- documents/paper.md -->
<g id="node30" class="node">
<title>documents/paper.md</title>
<polygon fill="none" stroke="black" points="586.33,-180 421.08,-180 421.08,-144 586.33,-144 586.33,-180"/>
<text xml:space="preserve" text-anchor="middle" x="503.71" y="-157.32" font-family="Times,serif" font-size="14.00">documents/paper.md</text>
</g>
<!-- documents/paper.md&#45;&gt;task_documents.py::task_compile_paper[paper&#45;pdf] -->
<g id="edge40" class="edge">
<title>documents/paper.md&#45;&gt;task_documents.py::task_compile_paper[paper&#45;pdf]</title>
<path fill="none" stroke="black" d="M586.51,-145.38C589.28,-144.91 592.01,-144.45 594.71,-144 668.81,-131.72 751.62,-119.59 819.7,-110.05"/>
<polygon fill="black" stroke="black" points="820.01,-113.54 829.43,-108.69 819.04,-106.61 820.01,-113.54"/>
</g>
<!-- documents/paper.md&#45;&gt;task_documents.py::task_compile_paper[paper&#45;html] -->
<g id="edge41" class="edge">
<title>documents/paper.md&#45;&gt;task_documents.py::task_compile_paper[paper&#45;html]</title>
<path fill="none" stroke="black" d="M457,-143.52C431.81,-134.08 400.5,-122.37 373.86,-112.39"/>
<polygon fill="black" stroke="black" points="375.15,-109.14 364.56,-108.91 372.7,-115.7 375.15,-109.14"/>
</g>
<!-- documents/refs.bib -->
<g id="node31" class="node">
<title>documents/refs.bib</title>
<polygon fill="none" stroke="black" points="757.33,-180 604.08,-180 604.08,-144 757.33,-144 757.33,-180"/>
<text xml:space="preserve" text-anchor="middle" x="680.71" y="-157.32" font-family="Times,serif" font-size="14.00">documents/refs.bib</text>
</g>
<!-- documents/refs.bib&#45;&gt;task_documents.py::task_compile_paper[paper&#45;pdf] -->
<g id="edge42" class="edge">
<title>documents/refs.bib&#45;&gt;task_documents.py::task_compile_paper[paper&#45;pdf]</title>
<path fill="none" stroke="black" d="M750.64,-143.52C789.96,-133.69 839.22,-121.37 880.15,-111.14"/>
<polygon fill="black" stroke="black" points="880.86,-114.57 889.71,-108.75 879.16,-107.78 880.86,-114.57"/>
</g>
<!-- documents/refs.bib&#45;&gt;task_documents.py::task_compile_paper[paper&#45;html] -->
<g id="edge43" class="edge">
<title>documents/refs.bib&#45;&gt;task_documents.py::task_compile_paper[paper&#45;html]</title>
<path fill="none" stroke="black" d="M603.81,-145.58C601.07,-145.05 598.37,-144.52 595.71,-144 537.88,-132.72 473.25,-120.43 420.76,-110.52"/>
<polygon fill="black" stroke="black" points="421.72,-107.14 411.24,-108.72 420.42,-114.02 421.72,-107.14"/>
</g>
<!-- documents/presentation.md -->
<g id="node34" class="node">
<title>documents/presentation.md</title>
<polygon fill="none" stroke="black" points="1704.83,-180 1488.58,-180 1488.58,-144 1704.83,-144 1704.83,-180"/>
<text xml:space="preserve" text-anchor="middle" x="1596.71" y="-157.32" font-family="Times,serif" font-size="14.00">documents/presentation.md</text>
</g>
<!-- documents/presentation.md&#45;&gt;task_documents.py::task_compile_presentation -->
<g id="edge46" class="edge">
<title>documents/presentation.md&#45;&gt;task_documents.py::task_compile_presentation</title>
<path fill="none" stroke="black" d="M1590.53,-143.7C1587.84,-136.15 1584.61,-127.12 1581.6,-118.68"/>
<polygon fill="black" stroke="black" points="1584.99,-117.77 1578.33,-109.53 1578.39,-120.12 1584.99,-117.77"/>
</g>
</g>
</svg>
