<?xml version="1.0" encoding="UTF-8" standalone="no"?>
<!DOCTYPE svg PUBLIC "-//W3C//DTD SVG 1.1//EN"
 "http://www.w3.org/Graphics/SVG/1.1/DTD/svg11.dtd">
<!-- Generated by graphviz version 14.1.2 (20260126.1125)
 -->
<!-- Pages: 1 -->
<svg width="3457pt" height="764pt"
 viewBox="0.00 0.00 3457.00 764.00" xmlns="http://www.w3.org/2000/svg" xmlns:xlink="http://www.w3.org/1999/xlink">
<g id="graph0" class="graph" transform="scale(1 1) rotate(0) translate(4 760)">
<polygon fill="white" stroke="none" points="-4,4 -4,-760 3453.49,-760 3453.49,4 -4,4"/>
<!-- task_final_template.py::task_create_results_table -->
<g id="node1" class="node">
<title>task_final_template.py::task_create_results_table</title>
<polygon fill="none" stroke="black" points="1965.76,-378 1817.74,-396 1521.68,-396 1373.65,-378 1521.68,-360 1817.74,-360 1965.76,-378"/>
<text xml:space="preserve" text-anchor="middle" x="1669.71" y="-373.32" font-family="Times,serif" font-size="14.00">task_final_template.py::task_create_results_table</text>
</g>
<!-- documents/tables/estimation_results.md -->
<g id="node2" class="node">
<title>documents/tables/estimation_results.md</title>
<polygon fill="none" stroke="black" points="1113.46,-180 807.96,-180 807.96,-144 1113.46,-144 1113.46,-180"/>
<text xml:space="preserve" text-anchor="middle" x="960.71" y="-157.32" font-family="Times,serif" font-size="14.00">documents/tables/estimation_results.md</text>
</g>
<!-- task_final_template.py::task_create_results_table&#45;&gt;documents/tables/estimation_results.md -->
<g id="edge1" class="edge">
<title>task_final_template.py::task_create_results_table&#45;&gt;documents/tables/estimation_results.md</title>
<path fill="none" stroke="black" d="M1398.83,-374.5C1208.16,-369.83 981.59,-357.24 950.71,-324 917.51,-288.27 934.11,-226.64 948.12,-190.89"/>
<polygon fill="black" stroke="black" points="951.35,-192.24 951.93,-181.66 944.88,-189.56 951.35,-192.24"/>
</g>
<!-- task_documents.py::task_compile_paper[paper&#45;pdf] -->
<g id="node6" class="node">
<title>task_documents.py::task_compile_paper[paper&#45;pdf]</title>
<polygon fill="none" stroke="black" points="1269.52,-90 1115.12,-108 806.3,-108 651.9,-90 806.3,-72 1115.12,-72 1269.52,-90"/>
<text xml:space="preserve" text-anchor="middle" x="960.71" y="-85.33" font-family="Times,serif" font-size="14.00">task_documents.py::task_compile_paper[paper&#45;pdf]</text>
</g>
<!-- documents/tables/estimation_results.md&#45;&gt;task_documents.py::task_compile_paper[paper&#45;pdf] -->
<g id="edge5" class="edge">
<title>documents/tables/estimation_results.md&#45;&gt;task_documents.py::task_compile_paper[paper&#45;pdf]</title>
<path fill="none" stroke="black" d="M960.71,-143.7C960.71,-136.41 960.71,-127.73 960.71,-119.54"/>
<polygon fill="black" stroke="black" points="964.21,-119.62 960.71,-109.62 957.21,-119.62 964.21,-119.62"/>
</g>
<!-- task_documents.py::task_compile_paper[paper&#45;html] -->
<g id="node7" class="node">
<title>task_documents.py::task_compile_paper[paper&#45;html]</title>
<polygon fill="none" stroke="black" points="633.42,-90 475.06,-108 158.35,-108 0,-90 158.35,-72 475.06,-72 633.42,-90"/>
<text xml:space="preserve" text-anchor="middle" x="316.71" y="-85.33" font-family="Times,serif" font-size="14.00">task_documents.py::task_compile_paper[paper&#45;html]</text>
</g>
<!-- documents/tables/estimation_results.md&#45;&gt;task_documents.py::task_compile_paper[paper&#45;html] -->
<g id="edge6" class="edge">
<title>documents/tables/estimation_results.md&#45;&gt;task_documents.py::task_compile_paper[paper&#45;html]</title>
<path fill="none" stroke="black" d="M807.68,-144.37C711.42,-133.9 587.04,-120.38 487.56,-109.57"/>
<polygon fill="black" stroke="black" points="488,-106.1 477.68,-108.5 487.24,-113.06 488,-106.1"/>
</g>
<!-- task_documents.py::task_compile_presentation -->
<g id="node8" class="node">
<title>task_documents.py::task_compile_presentation</title>
<polygon fill="none" stroke="black" points="1856.22,-90 1713.97,-108 1429.45,-108 1287.2,-90 1429.45,-72 1713.97,-72 1856.22,-90"/>
<text xml:space="preserve" text-anchor="middle" x="1571.71" y="-85.33" font-family="Times,serif" font-size="14.00">task_documents.py::task_compile_presentation</text>
</g>
<!-- documents/tables/estimation_results.md&#45;&gt;task_documents.py::task_compile_presentation -->
<g id="edge7" class="edge">
<title>documents/tables/estimation_results.md&#45;&gt;task_documents.py::task_compile_presentation</title>
<path fill="none" stroke="black" d="M1113.31,-143.52C1204.67,-133.05 1320.61,-119.77 1413.03,-109.18"/>
<polygon fill="black" stroke="black" points="1413.43,-112.66 1422.97,-108.04 1412.63,-105.7 1413.43,-112.66"/>
</g>
<!-- econ&#45;project&#45;templates/bld/estimation_results/baseline.pickle -->
<g id="node3" class="node">
<title>econ&#45;project&#45;templates/bld/estimation_results/baseline.pickle</title>
<polygon fill="none" stroke="black" points="2249.33,-468 1796.08,-468 1796.08,-432 2249.33,-432 2249.33,-468"/>
<text xml:space="preserve" text-anchor="middle" x="2022.71" y="-445.32" font-family="Times,serif" font-size="14.00">econ&#45;project&#45;templates/bld/estimation_results/baseline.pickle</text>
</g>
<!-- econ&#45;project&#45;templates/bld/estimation_results/baseline.pickle&#45;&gt;task_final_template.py::task_create_results_table -->
<g id="edge2" class="edge">
<title>econ&#45;project&#45;templates/bld/estimation_results/baseline.pickle&#45;&gt;task_final_template.py::task_create_results_table</title>
<path fill="none" stroke="black" d="M1934.54,-431.52C1884.22,-421.54 1820.99,-409 1768.94,-398.68"/>
<polygon fill="black" stroke="black" points="1769.64,-395.25 1759.15,-396.74 1768.28,-402.12 1769.64,-395.25"/>
</g>
<!-- task_analysis_template.py::task_predict[marital_status] -->
<g id="node4" class="node">
<title>task_analysis_template.py::task_predict[marital_status]</title>
<polygon fill="none" stroke="black" points="2652.04,-378 2484.87,-396 2150.55,-396 1983.38,-378 2150.55,-360 2484.87,-360 2652.04,-378"/>
<text xml:space="preserve" text-anchor="middle" x="2317.71" y="-373.32" font-family="Times,serif" font-size="14.00">task_analysis_template.py::task_predict[marital_status]</text>
</g>
<!-- econ&#45;project&#45;templates/bld/estimation_results/baseline.pickle&#45;&gt;task_analysis_template.py::task_predict[marital_status] -->
<g id="edge3" class="edge">
<title>econ&#45;project&#45;templates/bld/estimation_results/baseline.pickle&#45;&gt;task_analysis_template.py::task_predict[marital_status]</title>
<path fill="none" stroke="black" d="M2096.39,-431.52C2137.91,-421.66 2189.96,-409.31 2233.14,-399.07"/>
<polygon fill="black" stroke="black" points="2233.81,-402.51 2242.73,-396.79 2232.19,-395.7 2233.81,-402.51"/>
</g>
<!-- task_analysis_template.py::task_predict[highest_qualification] -->
<g id="node5" class="node">
<title>task_analysis_template.py::task_predict[highest_qualification]</title>
<polygon fill="none" stroke="black" points="3449.49,-378 3264.1,-396 2893.32,-396 2707.93,-378 2893.32,-360 3264.1,-360 3449.49,-378"/>
<text xml:space="preserve" text-anchor="middle" x="3078.71" y="-373.32" font-family="Times,serif" font-size="14.00">task_analysis_template.py::task_predict[highest_qualification]</text>
</g>
<!-- econ&#45;project&#45;templates/bld/estimation_results/baseline.pickle&#45;&gt;task_analysis_template.py::task_predict[highest_qualification] -->
<g id="edge4" class="edge">
<title>econ&#45;project&#45;templates/bld/estimation_results/baseline.pickle&#45;&gt;task_analysis_template.py::task_predict[highest_qualification]</title>
<path fill="none" stroke="black" d="M2249.57,-433.96C2426.99,-422.2 2672.56,-405.92 2850.36,-394.14"/>
<polygon fill="black" stroke="black" points="2850.45,-397.64 2860.19,-393.48 2849.98,-390.65 2850.45,-397.64"/>
</g>
<!-- econ&#45;project&#45;templates/bld/predictions/marital_status.feather -->
<g id="node15" class="node">
<title>econ&#45;project&#45;templates/bld/predictions/marital_status.feather</title>
<polygon fill="none" stroke="black" points="1851.08,-324 1396.33,-324 1396.33,-288 1851.08,-288 1851.08,-324"/>
<text xml:space="preserve" text-anchor="middle" x="1623.71" y="-301.32" font-family="Times,serif" font-size="14.00">econ&#45;project&#45;templates/bld/predictions/marital_status.feather</text>
</g>
<!-- task_analysis_template.py::task_predict[marital_status]&#45;&gt;econ&#45;project&#45;templates/bld/predictions/marital_status.feather -->
<g id="edge27" class="edge">
<title>task_analysis_template.py::task_predict[marital_status]&#45;&gt;econ&#45;project&#45;templates/bld/predictions/marital_status.feather</title>
<path fill="none" stroke="black" d="M2147.49,-359.83C2044.69,-349.46 1913.64,-336.24 1808.34,-325.62"/>
<polygon fill="black" stroke="black" points="1808.75,-322.15 1798.45,-324.62 1808.04,-329.11 1808.75,-322.15"/>
</g>
<!-- econ&#45;project&#45;templates/bld/predictions/highest_qualification.feather -->
<g id="node19" class="node">
<title>econ&#45;project&#45;templates/bld/predictions/highest_qualification.feather</title>
<polygon fill="none" stroke="black" points="3268.58,-324 2768.83,-324 2768.83,-288 3268.58,-288 3268.58,-324"/>
<text xml:space="preserve" text-anchor="middle" x="3018.71" y="-301.32" font-family="Times,serif" font-size="14.00">econ&#45;project&#45;templates/bld/predictions/highest_qualification.feather</text>
</g>
<!-- task_analysis_template.py::task_predict[highest_qualification]&#45;&gt;econ&#45;project&#45;templates/bld/predictions/highest_qualification.feather -->
<g id="edge31" class="edge">
<title>task_analysis_template.py::task_predict[highest_qualification]&#45;&gt;econ&#45;project&#45;templates/bld/predictions/highest_qualification.feather</title>
<path fill="none" stroke="black" d="M3063.88,-359.7C3056.9,-351.56 3048.44,-341.69 3040.74,-332.7"/>
<polygon fill="black" stroke="black" points="3043.52,-330.57 3034.36,-325.25 3038.21,-335.12 3043.52,-330.57"/>
</g>
<!-- econ&#45;project&#45;templates/paper.pdf -->
<g id="node28" class="node">
<title>econ&#45;project&#45;templates/paper.pdf</title>
<polygon fill="none" stroke="black" points="1086.46,-36 834.96,-36 834.96,0 1086.46,0 1086.46,-36"/>
<text xml:space="preserve" text-anchor="middle" x="960.71" y="-13.32" font-family="Times,serif" font-size="14.00">econ&#45;project&#45;templates/paper.pdf</text>
</g>
<!-- task_documents.py::task_compile_paper[paper&#45;pdf]&#45;&gt;econ&#45;project&#45;templates/paper.pdf -->
<g id="edge36" class="edge">
<title>task_documents.py::task_compile_paper[paper&#45;pdf]&#45;&gt;econ&#45;project&#45;templates/paper.pdf</title>
<path fill="none" stroke="black" d="M960.71,-71.7C960.71,-64.41 960.71,-55.73 960.71,-47.54"/>
<polygon fill="black" stroke="black" points="964.21,-47.62 960.71,-37.62 957.21,-47.62 964.21,-47.62"/>
</g>
<!-- econ&#45;project&#45;templates/_build/html/index.html -->
<g id="node32" class="node">
<title>econ&#45;project&#45;templates/_build/html/index.html</title>
<polygon fill="none" stroke="black" points="489.33,-36 144.08,-36 144.08,0 489.33,0 489.33,-36"/>
<text xml:space="preserve" text-anchor="middle" x="316.71" y="-13.32" font-family="Times,serif" font-size="14.00">econ&#45;project&#45;templates/_build/html/index.html</text>
</g>
<!-- task_documents.py::task_compile_paper[paper&#45;html]&#45;&gt;econ&#45;project&#45;templates/_build/html/index.html -->
<g id="edge43" class="edge">
<title>task_documents.py::task_compile_paper[paper&#45;html]&#45;&gt;econ&#45;project&#45;templates/_build/html/index.html</title>
<path fill="none" stroke="black" d="M316.71,-71.7C316.71,-64.41 316.71,-55.73 316.71,-47.54"/>
<polygon fill="black" stroke="black" points="320.21,-47.62 316.71,-37.62 313.21,-47.62 320.21,-47.62"/>
</g>
<!-- econ&#45;project&#45;templates/presentation.pdf -->
<g id="node33" class="node">
<title>econ&#45;project&#45;templates/presentation.pdf</title>
<polygon fill="none" stroke="black" points="1722.96,-36 1420.46,-36 1420.46,0 1722.96,0 1722.96,-36"/>
<text xml:space="preserve" text-anchor="middle" x="1571.71" y="-13.32" font-family="Times,serif" font-size="14.00">econ&#45;project&#45;templates/presentation.pdf</text>
</g>
<!-- task_documents.py::task_compile_presentation&#45;&gt;econ&#45;project&#45;templates/presentation.pdf -->
<g id="edge44" class="edge">
<title>task_documents.py::task_compile_presentation&#45;&gt;econ&#45;project&#45;templates/presentation.pdf</title>
<path fill="none" stroke="black" d="M1571.71,-71.7C1571.71,-64.41 1571.71,-55.73 1571.71,-47.54"/>
<polygon fill="black" stroke="black" points="1575.21,-47.62 1571.71,-37.62 1568.21,-47.62 1575.21,-47.62"/>
</g>
<!-- task_final_template.py::task_plot_results_by_age[marital_status] -->
<g id="node9" class="node">
<title>task_final_template.py::task_plot_results_by_age[marital_status]</title>
<polygon fill="none" stroke="black" points="1730.46,-234 1538.08,-252 1153.33,-252 960.96,-234 1153.33,-216 1538.08,-216 1730.46,-234"/>
<text xml:space="preserve" text-anchor="middle" x="1345.71" y="-229.32" font-family="Times,serif" font-size="14.00">task_final_template.py::task_plot_results_by_age[marital_status]</text>
</g>
<!-- documents/public/smoking_by_marital_status.png -->
<g id="node10" class="node">
<title>documents/public/smoking_by_marital_status.png</title>
<polygon fill="none" stroke="black" points="1503.46,-180 1131.96,-180 1131.96,-144 1503.46,-144 1503.46,-180"/>
<text xml:space="preserve" text-anchor="middle" x="1317.71" y="-157.32" font-family="Times,serif" font-size="14.00">documents/public/smoking_by_marital_status.png</text>
</g>
<!-- task_final_template.py::task_plot_results_by_age[marital_status]&#45;&gt;documents/public/smoking_by_marital_status.png -->
<g id="edge8" class="edge">
<title>task_final_template.py::task_plot_results_by_age[marital_status]&#45;&gt;documents/public/smoking_by_marital_status.png</title>
<path fill="none" stroke="black" d="M1338.79,-215.7C1335.77,-208.15 1332.16,-199.12 1328.78,-190.68"/>
<polygon fill="black" stroke="black" points="1332.08,-189.49 1325.11,-181.51 1325.58,-192.09 1332.08,-189.49"/>
</g>
<!-- documents/public/smoking_by_marital_status.png&#45;&gt;task_documents.py::task_compile_paper[paper&#45;pdf] -->
<g id="edge18" class="edge">
<title>documents/public/smoking_by_marital_status.png&#45;&gt;task_documents.py::task_compile_paper[paper&#45;pdf]</title>
<path fill="none" stroke="black" d="M1228.54,-143.52C1177.55,-133.52 1113.44,-120.95 1060.73,-110.61"/>
<polygon fill="black" stroke="black" points="1061.64,-107.22 1051.15,-108.73 1060.29,-114.09 1061.64,-107.22"/>
</g>
<!-- documents/public/smoking_by_marital_status.png&#45;&gt;task_documents.py::task_compile_paper[paper&#45;html] -->
<g id="edge19" class="edge">
<title>documents/public/smoking_by_marital_status.png&#45;&gt;task_documents.py::task_compile_paper[paper&#45;html]</title>
<path fill="none" stroke="black" d="M1131.67,-144.69C1128.66,-144.46 1125.67,-144.23 1122.71,-144 922.64,-128.7 694.42,-113.95 532.02,-103.91"/>
<polygon fill="black" stroke="black" points="532.64,-100.44 522.44,-103.32 532.21,-107.43 532.64,-100.44"/>
</g>
<!-- documents/public/smoking_by_marital_status.png&#45;&gt;task_documents.py::task_compile_presentation -->
<g id="edge20" class="edge">
<title>documents/public/smoking_by_marital_status.png&#45;&gt;task_documents.py::task_compile_presentation</title>
<path fill="none" stroke="black" d="M1381.15,-143.52C1416.59,-133.75 1460.93,-121.53 1497.92,-111.34"/>
<polygon fill="black" stroke="black" points="1498.47,-114.81 1507.18,-108.78 1496.61,-108.07 1498.47,-114.81"/>
</g>
<!-- econ&#45;project&#45;templates/bld/data/stats4schools_smoking.feather -->
<g id="node11" class="node">
<title>econ&#45;project&#45;templates/bld/data/stats4schools_smoking.feather</title>
<polygon fill="none" stroke="black" points="2511.08,-612 2044.33,-612 2044.33,-576 2511.08,-576 2511.08,-612"/>
<text xml:space="preserve" text-anchor="middle" x="2277.71" y="-589.33" font-family="Times,serif" font-size="14.00">econ&#45;project&#45;templates/bld/data/stats4schools_smoking.feather</text>
</g>
<!-- econ&#45;project&#45;templates/bld/data/stats4schools_smoking.feather&#45;&gt;task_analysis_template.py::task_predict[marital_status] -->
<g id="edge12" class="edge">
<title>econ&#45;project&#45;templates/bld/data/stats4schools_smoking.feather&#45;&gt;task_analysis_template.py::task_predict[marital_status]</title>
<path fill="none" stroke="black" d="M2278.28,-575.82C2279.58,-546.08 2283.75,-483.3 2296.71,-432 2298.82,-423.65 2301.92,-414.86 2305.09,-406.88"/>
<polygon fill="black" stroke="black" points="2308.31,-408.26 2308.95,-397.68 2301.86,-405.55 2308.31,-408.26"/>
</g>
<!-- econ&#45;project&#45;templates/bld/data/stats4schools_smoking.feather&#45;&gt;task_analysis_template.py::task_predict[highest_qualification] -->
<g id="edge13" class="edge">
<title>econ&#45;project&#45;templates/bld/data/stats4schools_smoking.feather&#45;&gt;task_analysis_template.py::task_predict[highest_qualification]</title>
<path fill="none" stroke="black" d="M2511.58,-576.9C2571.75,-569.05 2635.83,-557.37 2693.71,-540 2798.04,-508.69 2812.7,-472.76 2913.71,-432 2943.52,-419.97 2977.19,-408.75 3006.31,-399.76"/>
<polygon fill="black" stroke="black" points="3007.23,-403.13 3015.78,-396.86 3005.19,-396.44 3007.23,-403.13"/>
</g>
<!-- econ&#45;project&#45;templates/bld/data/stats4schools_smoking.feather&#45;&gt;task_final_template.py::task_plot_results_by_age[marital_status] -->
<g id="edge9" class="edge">
<title>econ&#45;project&#45;templates/bld/data/stats4schools_smoking.feather&#45;&gt;task_final_template.py::task_plot_results_by_age[marital_status]</title>
<path fill="none" stroke="black" d="M2044.03,-580C1767.96,-561.43 1345.71,-521.51 1345.71,-451 1345.71,-451 1345.71,-451 1345.71,-377 1345.71,-337.74 1345.71,-292.38 1345.71,-263.69"/>
<polygon fill="black" stroke="black" points="1349.21,-264 1345.71,-254 1342.21,-264 1349.21,-264"/>
</g>
<!-- task_final_template.py::task_plot_results_by_age[highest_qualification] -->
<g id="node12" class="node">
<title>task_final_template.py::task_plot_results_by_age[highest_qualification]</title>
<polygon fill="none" stroke="black" points="2985.91,-234 2775.31,-252 2354.11,-252 2143.51,-234 2354.11,-216 2775.31,-216 2985.91,-234"/>
<text xml:space="preserve" text-anchor="middle" x="2564.71" y="-229.32" font-family="Times,serif" font-size="14.00">task_final_template.py::task_plot_results_by_age[highest_qualification]</text>
</g>
<!-- econ&#45;project&#45;templates/bld/data/stats4schools_smoking.feather&#45;&gt;task_final_template.py::task_plot_results_by_age[highest_qualification] -->
<g id="edge10" class="edge">
<title>econ&#45;project&#45;templates/bld/data/stats4schools_smoking.feather&#45;&gt;task_final_template.py::task_plot_results_by_age[highest_qualification]</title>
<path fill="none" stroke="black" d="M2391.56,-575.52C2510.43,-553.97 2679.71,-512.48 2679.71,-451 2679.71,-451 2679.71,-451 2679.71,-377 2679.71,-336.55 2684.81,-320.48 2660.71,-288 2651.31,-275.33 2637.93,-265.31 2624.14,-257.55"/>
<polygon fill="black" stroke="black" points="2625.9,-254.52 2615.41,-252.99 2622.66,-260.72 2625.9,-254.52"/>
</g>
<!-- task_analysis_template.py::task_fit_model -->
<g id="node13" class="node">
<title>task_analysis_template.py::task_fit_model</title>
<polygon fill="none" stroke="black" points="1317.85,-522 1190.78,-540 936.64,-540 809.57,-522 936.64,-504 1190.78,-504 1317.85,-522"/>
<text xml:space="preserve" text-anchor="middle" x="1063.71" y="-517.33" font-family="Times,serif" font-size="14.00">task_analysis_template.py::task_fit_model</text>
</g>
<!-- econ&#45;project&#45;templates/bld/data/stats4schools_smoking.feather&#45;&gt;task_analysis_template.py::task_fit_model -->
<g id="edge11" class="edge">
<title>econ&#45;project&#45;templates/bld/data/stats4schools_smoking.feather&#45;&gt;task_analysis_template.py::task_fit_model</title>
<path fill="none" stroke="black" d="M2043.94,-580.38C1852.47,-569.94 1574.52,-554.5 1331.71,-540 1304.29,-538.36 1275.29,-536.58 1246.89,-534.8"/>
<polygon fill="black" stroke="black" points="1247.33,-531.32 1237.13,-534.19 1246.89,-538.31 1247.33,-531.32"/>
</g>
<!-- documents/public/smoking_by_highest_qualification.png -->
<g id="node17" class="node">
<title>documents/public/smoking_by_highest_qualification.png</title>
<polygon fill="none" stroke="black" points="2772.96,-180 2356.46,-180 2356.46,-144 2772.96,-144 2772.96,-180"/>
<text xml:space="preserve" text-anchor="middle" x="2564.71" y="-157.32" font-family="Times,serif" font-size="14.00">documents/public/smoking_by_highest_qualification.png</text>
</g>
<!-- task_final_template.py::task_plot_results_by_age[highest_qualification]&#45;&gt;documents/public/smoking_by_highest_qualification.png -->
<g id="edge21" class="edge">
<title>task_final_template.py::task_plot_results_by_age[highest_qualification]&#45;&gt;documents/public/smoking_by_highest_qualification.png</title>
<path fill="none" stroke="black" d="M2564.71,-215.7C2564.71,-208.41 2564.71,-199.73 2564.71,-191.54"/>
<polygon fill="black" stroke="black" points="2568.21,-191.62 2564.71,-181.62 2561.21,-191.62 2568.21,-191.62"/>
</g>
<!-- task_analysis_template.py::task_fit_model&#45;&gt;econ&#45;project&#45;templates/bld/estimation_results/baseline.pickle -->
<g id="edge24" class="edge">
<title>task_analysis_template.py::task_fit_model&#45;&gt;econ&#45;project&#45;templates/bld/estimation_results/baseline.pickle</title>
<path fill="none" stroke="black" d="M1229.11,-508.93C1382.21,-497.75 1611.58,-481.01 1784.42,-468.39"/>
<polygon fill="black" stroke="black" points="1784.49,-471.9 1794.21,-467.68 1783.98,-464.92 1784.49,-471.9"/>
</g>
<!-- task_plot_results_by_age[marital_status]::group -->
<g id="node14" class="node">
<title>task_plot_results_by_age[marital_status]::group</title>
<polygon fill="none" stroke="black" points="1317.33,-324 960.08,-324 960.08,-288 1317.33,-288 1317.33,-324"/>
<text xml:space="preserve" text-anchor="middle" x="1138.71" y="-301.32" font-family="Times,serif" font-size="14.00">task_plot_results_by_age[marital_status]::group</text>
</g>
<!-- task_plot_results_by_age[marital_status]::group&#45;&gt;task_final_template.py::task_plot_results_by_age[marital_status] -->
<g id="edge14" class="edge">
<title>task_plot_results_by_age[marital_status]::group&#45;&gt;task_final_template.py::task_plot_results_by_age[marital_status]</title>
<path fill="none" stroke="black" d="M1190.41,-287.52C1218.67,-277.96 1253.88,-266.05 1283.62,-256"/>
<polygon fill="black" stroke="black" points="1284.52,-259.39 1292.88,-252.87 1282.28,-252.75 1284.52,-259.39"/>
</g>
<!-- econ&#45;project&#45;templates/bld/predictions/marital_status.feather&#45;&gt;task_final_template.py::task_plot_results_by_age[marital_status] -->
<g id="edge15" class="edge">
<title>econ&#45;project&#45;templates/bld/predictions/marital_status.feather&#45;&gt;task_final_template.py::task_plot_results_by_age[marital_status]</title>
<path fill="none" stroke="black" d="M1554.28,-287.52C1515.24,-277.69 1466.33,-265.37 1425.7,-255.14"/>
<polygon fill="black" stroke="black" points="1426.76,-251.8 1416.21,-252.75 1425.05,-258.59 1426.76,-251.8"/>
</g>
<!-- template_project/final/plot_template.py -->
<g id="node16" class="node">
<title>template_project/final/plot_template.py</title>
<polygon fill="none" stroke="black" points="2209.96,-324 1913.46,-324 1913.46,-288 2209.96,-288 2209.96,-324"/>
<text xml:space="preserve" text-anchor="middle" x="2061.71" y="-301.32" font-family="Times,serif" font-size="14.00">template_project/final/plot_template.py</text>
</g>
<!-- template_project/final/plot_template.py&#45;&gt;task_final_template.py::task_plot_results_by_age[marital_status] -->
<g id="edge16" class="edge">
<title>template_project/final/plot_template.py&#45;&gt;task_final_template.py::task_plot_results_by_age[marital_status]</title>
<path fill="none" stroke="black" d="M1913.35,-290.5C1803.93,-279.8 1654.17,-265.16 1535.95,-253.6"/>
<polygon fill="black" stroke="black" points="1536.41,-250.13 1526.11,-252.64 1535.72,-257.09 1536.41,-250.13"/>
</g>
<!-- template_project/final/plot_template.py&#45;&gt;task_final_template.py::task_plot_results_by_age[highest_qualification] -->
<g id="edge17" class="edge">
<title>template_project/final/plot_template.py&#45;&gt;task_final_template.py::task_plot_results_by_age[highest_qualification]</title>
<path fill="none" stroke="black" d="M2187.34,-287.52C2260.7,-277.31 2353.31,-264.42 2428.42,-253.97"/>
<polygon fill="black" stroke="black" points="2428.45,-257.5 2437.87,-252.65 2427.49,-250.56 2428.45,-257.5"/>
</g>
<!-- task_plot_results_by_age[highest_qualification]::group -->
<g id="node18" class="node">
<title>task_plot_results_by_age[highest_qualification]::group</title>
<polygon fill="none" stroke="black" points="2651.83,-324 2249.58,-324 2249.58,-288 2651.83,-288 2651.83,-324"/>
<text xml:space="preserve" text-anchor="middle" x="2450.71" y="-301.32" font-family="Times,serif" font-size="14.00">task_plot_results_by_age[highest_qualification]::group</text>
</g>
<!-- task_plot_results_by_age[highest_qualification]::group&#45;&gt;task_final_template.py::task_plot_results_by_age[highest_qualification] -->
<g id="edge22" class="edge">
<title>task_plot_results_by_age[highest_qualification]::group&#45;&gt;task_final_template.py::task_plot_results_by_age[highest_qualification]</title>
<path fill="none" stroke="black" d="M2479.18,-287.52C2493.71,-278.6 2511.57,-267.63 2527.2,-258.03"/>
<polygon fill="black" stroke="black" points="2528.62,-261.27 2535.31,-253.05 2524.96,-255.3 2528.62,-261.27"/>
</g>
<!-- econ&#45;project&#45;templates/bld/predictions/highest_qualification.feather&#45;&gt;task_final_template.py::task_plot_results_by_age[highest_qualification] -->
<g id="edge23" class="edge">
<title>econ&#45;project&#45;templates/bld/predictions/highest_qualification.feather&#45;&gt;task_final_template.py::task_plot_results_by_age[highest_qualification]</title>
<path fill="none" stroke="black" d="M2905.32,-287.52C2839.51,-277.37 2756.55,-264.58 2688.97,-254.16"/>
<polygon fill="black" stroke="black" points="2689.75,-250.74 2679.33,-252.67 2688.68,-257.66 2689.75,-250.74"/>
</g>
<!-- task_fit_model::formula -->
<g id="node20" class="node">
<title>task_fit_model::formula</title>
<polygon fill="none" stroke="black" points="1015.96,-612 833.46,-612 833.46,-576 1015.96,-576 1015.96,-612"/>
<text xml:space="preserve" text-anchor="middle" x="924.71" y="-589.33" font-family="Times,serif" font-size="14.00">task_fit_model::formula</text>
</g>
<!-- task_fit_model::formula&#45;&gt;task_analysis_template.py::task_fit_model -->
<g id="edge25" class="edge">
<title>task_fit_model::formula&#45;&gt;task_analysis_template.py::task_fit_model</title>
<path fill="none" stroke="black" d="M959.43,-575.52C977.56,-566.39 999.94,-555.11 1019.32,-545.35"/>
<polygon fill="black" stroke="black" points="1020.73,-548.57 1028.08,-540.94 1017.58,-542.31 1020.73,-548.57"/>
</g>
<!-- template_project/analysis/model_template.py -->
<g id="node21" class="node">
<title>template_project/analysis/model_template.py</title>
<polygon fill="none" stroke="black" points="1373.33,-612 1034.08,-612 1034.08,-576 1373.33,-576 1373.33,-612"/>
<text xml:space="preserve" text-anchor="middle" x="1203.71" y="-589.33" font-family="Times,serif" font-size="14.00">template_project/analysis/model_template.py</text>
</g>
<!-- template_project/analysis/model_template.py&#45;&gt;task_analysis_template.py::task_fit_model -->
<g id="edge26" class="edge">
<title>template_project/analysis/model_template.py&#45;&gt;task_analysis_template.py::task_fit_model</title>
<path fill="none" stroke="black" d="M1168.74,-575.52C1150.48,-566.39 1127.93,-555.11 1108.42,-545.35"/>
<polygon fill="black" stroke="black" points="1110.09,-542.28 1099.58,-540.94 1106.96,-548.54 1110.09,-542.28"/>
</g>
<!-- task_predict[marital_status]::group -->
<g id="node22" class="node">
<title>task_predict[marital_status]::group</title>
<polygon fill="none" stroke="black" points="1777.71,-468 1509.71,-468 1509.71,-432 1777.71,-432 1777.71,-468"/>
<text xml:space="preserve" text-anchor="middle" x="1643.71" y="-445.32" font-family="Times,serif" font-size="14.00">task_predict[marital_status]::group</text>
</g>
<!-- task_predict[marital_status]::group&#45;&gt;task_analysis_template.py::task_predict[marital_status] -->
<g id="edge28" class="edge">
<title>task_predict[marital_status]::group&#45;&gt;task_analysis_template.py::task_predict[marital_status]</title>
<path fill="none" stroke="black" d="M1778.05,-432.95C1780.96,-432.63 1783.85,-432.31 1786.71,-432 1901.11,-419.49 2029.51,-406.64 2131.39,-396.73"/>
<polygon fill="black" stroke="black" points="2131.62,-400.23 2141.23,-395.77 2130.94,-393.26 2131.62,-400.23"/>
</g>
<!-- template_project/analysis/predict_template.py -->
<g id="node23" class="node">
<title>template_project/analysis/predict_template.py</title>
<polygon fill="none" stroke="black" points="2652.08,-468 2305.33,-468 2305.33,-432 2652.08,-432 2652.08,-468"/>
<text xml:space="preserve" text-anchor="middle" x="2478.71" y="-445.32" font-family="Times,serif" font-size="14.00">template_project/analysis/predict_template.py</text>
</g>
<!-- template_project/analysis/predict_template.py&#45;&gt;task_analysis_template.py::task_predict[marital_status] -->
<g id="edge29" class="edge">
<title>template_project/analysis/predict_template.py&#45;&gt;task_analysis_template.py::task_predict[marital_status]</title>
<path fill="none" stroke="black" d="M2438.5,-431.52C2417.19,-422.25 2390.81,-410.78 2368.14,-400.93"/>
<polygon fill="black" stroke="black" points="2369.64,-397.76 2359.08,-396.99 2366.85,-404.18 2369.64,-397.76"/>
</g>
<!-- template_project/analysis/predict_template.py&#45;&gt;task_analysis_template.py::task_predict[highest_qualification] -->
<g id="edge30" class="edge">
<title>template_project/analysis/predict_template.py&#45;&gt;task_analysis_template.py::task_predict[highest_qualification]</title>
<path fill="none" stroke="black" d="M2628.57,-431.52C2716.53,-421.25 2827.69,-408.29 2917.54,-397.8"/>
<polygon fill="black" stroke="black" points="2917.91,-401.28 2927.44,-396.65 2917.1,-394.33 2917.91,-401.28"/>
</g>
<!-- task_predict[highest_qualification]::group -->
<g id="node24" class="node">
<title>task_predict[highest_qualification]::group</title>
<polygon fill="none" stroke="black" points="3235.21,-468 2922.21,-468 2922.21,-432 3235.21,-432 3235.21,-468"/>
<text xml:space="preserve" text-anchor="middle" x="3078.71" y="-445.32" font-family="Times,serif" font-size="14.00">task_predict[highest_qualification]::group</text>
</g>
<!-- task_predict[highest_qualification]::group&#45;&gt;task_analysis_template.py::task_predict[highest_qualification] -->
<g id="edge32" class="edge">
<title>task_predict[highest_qualification]::group&#45;&gt;task_analysis_template.py::task_predict[highest_qualification]</title>
<path fill="none" stroke="black" d="M3078.71,-431.7C3078.71,-424.41 3078.71,-415.73 3078.71,-407.54"/>
<polygon fill="black" stroke="black" points="3082.21,-407.62 3078.71,-397.62 3075.21,-407.62 3082.21,-407.62"/>
</g>
<!-- task_data_management_template.py::task_clean_stats4schools_smoking_data -->
<g id="node25" class="node">
<title>task_data_management_template.py::task_clean_stats4schools_smoking_data</title>
<polygon fill="none" stroke="black" points="2737.79,-666 2507.75,-684 2047.67,-684 1817.63,-666 2047.67,-648 2507.75,-648 2737.79,-666"/>
<text xml:space="preserve" text-anchor="middle" x="2277.71" y="-661.33" font-family="Times,serif" font-size="14.00">task_data_management_template.py::task_clean_stats4schools_smoking_data</text>
</g>
<!-- task_data_management_template.py::task_clean_stats4schools_smoking_data&#45;&gt;econ&#45;project&#45;templates/bld/data/stats4schools_smoking.feather -->
<g id="edge33" class="edge">
<title>task_data_management_template.py::task_clean_stats4schools_smoking_data&#45;&gt;econ&#45;project&#45;templates/bld/data/stats4schools_smoking.feather</title>
<path fill="none" stroke="black" d="M2277.71,-647.7C2277.71,-640.41 2277.71,-631.73 2277.71,-623.54"/>
<polygon fill="black" stroke="black" points="2281.21,-623.62 2277.71,-613.62 2274.21,-623.62 2281.21,-623.62"/>
</g>
<!-- template_project/data/stats4schools_smoking_template.csv -->
<g id="node26" class="node">
<title>template_project/data/stats4schools_smoking_template.csv</title>
<polygon fill="none" stroke="black" points="2245.21,-756 1806.21,-756 1806.21,-720 2245.21,-720 2245.21,-756"/>
<text xml:space="preserve" text-anchor="middle" x="2025.71" y="-733.33" font-family="Times,serif" font-size="14.00">template_project/data/stats4schools_smoking_template.csv</text>
</g>
<!-- template_project/data/stats4schools_smoking_template.csv&#45;&gt;task_data_management_template.py::task_clean_stats4schools_smoking_data -->
<g id="edge34" class="edge">
<title>template_project/data/stats4schools_smoking_template.csv&#45;&gt;task_data_management_template.py::task_clean_stats4schools_smoking_data</title>
<path fill="none" stroke="black" d="M2088.65,-719.52C2123.81,-709.75 2167.8,-697.53 2204.5,-687.34"/>
<polygon fill="black" stroke="black" points="2204.98,-690.84 2213.68,-684.79 2203.11,-684.09 2204.98,-690.84"/>
</g>
<!-- template_project/data_management/stats4schools_smoking_template.py -->
<g id="node27" class="node">
<title>template_project/data_management/stats4schools_smoking_template.py</title>
<polygon fill="none" stroke="black" points="2796.08,-756 2263.33,-756 2263.33,-720 2796.08,-720 2796.08,-756"/>
<text xml:space="preserve" text-anchor="middle" x="2529.71" y="-733.33" font-family="Times,serif" font-size="14.00">template_project/data_management/stats4schools_smoking_template.py</text>
</g>
<!-- template_project/data_management/stats4schools_smoking_template.py&#45;&gt;task_data_management_template.py::task_clean_stats4schools_smoking_data -->
<g id="edge35" class="edge">
<title>template_project/data_management/stats4schools_smoking_template.py&#45;&gt;task_data_management_template.py::task_clean_stats4schools_smoking_data</title>
<path fill="none" stroke="black" d="M2466.77,-719.52C2431.61,-709.75 2387.62,-697.53 2350.92,-687.34"/>
<polygon fill="black" stroke="black" points="2352.31,-684.09 2341.74,-684.79 2350.44,-690.84 2352.31,-684.09"/>
</g>
<!-- econ&#45;project&#45;templates/myst.yml -->
<g id="node29" class="node">
<title>econ&#45;project&#45;templates/myst.yml</title>
<polygon fill="none" stroke="black" points="606.71,-180 356.71,-180 356.71,-144 606.71,-144 606.71,-180"/>
<text xml:space="preserve" text-anchor="middle" x="481.71" y="-157.32" font-family="Times,serif" font-size="14.00">econ&#45;project&#45;templates/myst.yml</text>
</g>
<!-- econ&#45;project&#45;templates/myst.yml&#45;&gt;task_documents.py::task_compile_paper[paper&#45;pdf] -->
<g id="edge37" class="edge">
<title>econ&#45;project&#45;templates/myst.yml&#45;&gt;task_documents.py::task_compile_paper[paper&#45;pdf]</title>
<path fill="none" stroke="black" d="M601.35,-143.52C670.92,-133.35 758.67,-120.53 830.04,-110.1"/>
<polygon fill="black" stroke="black" points="830.47,-113.57 839.86,-108.66 829.46,-106.64 830.47,-113.57"/>
</g>
<!-- econ&#45;project&#45;templates/myst.yml&#45;&gt;task_documents.py::task_compile_paper[paper&#45;html] -->
<g id="edge38" class="edge">
<title>econ&#45;project&#45;templates/myst.yml&#45;&gt;task_documents.py::task_compile_paper[paper&#45;html]</title>
<path fill="none" stroke="black" d="M440.5,-143.52C418.56,-134.21 391.38,-122.68 368.08,-112.79"/>
<polygon fill="black" stroke="black" points="369.65,-109.66 359.07,-108.97 366.91,-116.1 369.65,-109.66"/>
</g>
<!-- documents/paper.md -->
<g id="node30" class="node">
<title>documents/paper.md</title>
<polygon fill="none" stroke="black" points="790.33,-180 625.08,-180 625.08,-144 790.33,-144 790.33,-180"/>
<text xml:space="preserve" text-anchor="middle" x="707.71" y="-157.32" font-family="Times,serif" font-size="14.00">documents/paper.md</text>
</g>
<!-- documents/paper.md&#45;&gt;task_documents.py::task_compile_paper[paper&#45;pdf] -->
<g id="edge39" class="edge">
<title>documents/paper.md&#45;&gt;task_documents.py::task_compile_paper[paper&#45;pdf]</title>
<path fill="none" stroke="black" d="M770.9,-143.52C806.2,-133.75 850.36,-121.53 887.21,-111.34"/>
<polygon fill="black" stroke="black" points="887.72,-114.83 896.43,-108.79 885.86,-108.08 887.72,-114.83"/>
</g>
<!-- documents/paper.md&#45;&gt;task_documents.py::task_compile_paper[paper&#45;html] -->
<g id="edge40" class="edge">
<title>documents/paper.md&#45;&gt;task_documents.py::task_compile_paper[paper&#45;html]</title>
<path fill="none" stroke="black" d="M624.96,-145.68C621.84,-145.11 618.75,-144.55 615.71,-144 553.46,-132.73 483.87,-120.38 427.5,-110.44"/>
<polygon fill="black" stroke="black" points="428.36,-107.04 417.9,-108.75 427.14,-113.93 428.36,-107.04"/>
</g>
<!-- documents/refs.bib -->
<g id="node31" class="node">
<title>documents/refs.bib</title>
<polygon fill="none" stroke="black" points="338.33,-180 185.08,-180 185.08,-144 338.33,-144 338.33,-180"/>
<text xml:space="preserve" text-anchor="middle" x="261.71" y="-157.32" font-family="Times,serif" font-size="14.00">documents/refs.bib</text>
</g>
<!-- documents/refs.bib&#45;&gt;task_documents.py::task_compile_paper[paper&#45;pdf] -->
<g id="edge41" class="edge">
<title>documents/refs.bib&#45;&gt;task_documents.py::task_compile_paper[paper&#45;pdf]</title>
<path fill="none" stroke="black" d="M338.53,-145.38C341.63,-144.89 344.7,-144.43 347.71,-144 479.88,-125.28 629.09,-112.21 747.2,-103.73"/>
<polygon fill="black" stroke="black" points="747.3,-107.23 757.03,-103.03 746.8,-100.25 747.3,-107.23"/>
</g>
<!-- documents/refs.bib&#45;&gt;task_documents.py::task_compile_paper[paper&#45;html] -->
<g id="edge42" class="edge">
<title>documents/refs.bib&#45;&gt;task_documents.py::task_compile_paper[paper&#45;html]</title>
<path fill="none" stroke="black" d="M275.31,-143.7C281.63,-135.64 289.29,-125.89 296.29,-116.98"/>
<polygon fill="black" stroke="black" points="298.91,-119.32 302.34,-109.29 293.41,-115 298.91,-119.32"/>
</g>
<!-- documents/presentation.md -->
<g id="node34" class="node">
<title>documents/presentation.md</title>
<polygon fill="none" stroke="black" points="1737.83,-180 1521.58,-180 1521.58,-144 1737.83,-144 1737.83,-180"/>
<text xml:space="preserve" text-anchor="middle" x="1629.71" y="-157.32" font-family="Times,serif" font-size="14.00">documents/presentation.md</text>
</g>
<!-- documents/presentation.md&#45;&gt;task_documents.py::task_compile_presentation -->
<g id="edge45" class="edge">
<title>documents/presentation.md&#45;&gt;task_documents.py::task_compile_presentation</title>
<path fill="none" stroke="black" d="M1615.37,-143.7C1608.63,-135.56 1600.45,-125.69 1593.01,-116.7"/>
<polygon fill="black" stroke="black" points="1595.92,-114.74 1586.85,-109.27 1590.53,-119.2 1595.92,-114.74"/>
</g>
</g>
</svg>
